<?xml version="1.0" standalone="no"?>
<!DOCTYPE svg PUBLIC "-//W3C//DTD SVG 20010904//EN"
 "http://www.w3.org/TR/2001/REC-SVG-20010904/DTD/svg10.dtd">
<svg version="1.0" xmlns="http://www.w3.org/2000/svg"
 width="1080.000000pt" height="1080.000000pt" viewBox="0 0 1080.000000 1080.000000"
 preserveAspectRatio="xMidYMid meet">

<g transform="translate(0.000000,1080.000000) scale(0.100000,-0.100000)"
fill="#000000" stroke="none">
<path d="M8118 9316 c-67 -24 -313 -169 -348 -206 -39 -40 -87 -132 -118 -230
-22 -67 -52 -222 -52 -269 0 -24 -1 -25 -14 -6 -7 11 -41 75 -75 143 -34 67
-66 122 -70 122 -4 0 -47 -38 -96 -85 -79 -77 -105 -93 -105 -64 0 6 4 8 9 5
8 -5 14 14 28 92 3 18 11 32 19 32 39 0 -27 65 -215 207 l-204 155 -89 -17
c-54 -10 -103 -14 -128 -10 -35 6 -40 4 -39 -12 0 -10 3 -13 6 -5 2 6 12 12
21 12 14 0 14 -2 3 -9 -12 -8 -12 -16 -1 -57 15 -53 88 -132 190 -207 30 -23
81 -62 114 -88 67 -55 208 -128 250 -131 19 -2 31 -10 37 -26 5 -13 52 -119
104 -237 l95 -213 -1 -169 c-1 -160 -1 -165 -13 -103 -13 75 -53 150 -68 128
-7 -9 -8 -7 -5 10 4 15 -1 25 -13 32 -28 15 -33 12 -26 -14 4 -17 -1 -29 -16
-42 -13 -11 -17 -12 -11 -4 10 13 8 18 -9 29 -11 7 -18 9 -15 4 3 -4 -2 -14
-10 -22 -13 -12 -14 -11 -8 10 4 17 3 20 -3 10 -8 -11 -12 -9 -22 9 -10 18 -9
24 1 31 11 7 9 9 -5 9 -11 0 -16 3 -13 7 4 3 2 12 -4 20 -9 10 -8 13 1 13 8 0
11 2 8 5 -3 3 -13 3 -22 -1 -14 -5 -12 -14 16 -66 31 -59 46 -73 83 -79 10 -2
28 -12 38 -22 13 -13 27 -17 45 -13 18 4 22 4 13 -2 -10 -7 -10 -11 -1 -17 11
-7 14 -298 3 -373 l-5 -32 -29 45 c-34 54 -50 61 -19 8 28 -48 33 -126 8 -131
-22 -4 -99 50 -93 66 2 6 -2 12 -9 12 -7 0 -24 16 -37 35 -13 19 -27 35 -31
35 -5 0 -8 7 -8 15 0 8 -11 22 -24 31 -15 9 -23 21 -19 30 4 12 0 14 -23 9
-23 -5 -26 -4 -14 5 12 8 8 10 -17 6 -28 -4 -36 1 -60 33 -27 36 -106 111
-166 158 -16 12 -26 27 -22 33 8 13 -26 71 -38 63 -6 -3 -7 -1 -3 5 3 6 1 17
-6 24 -7 8 -20 27 -29 43 -9 17 -21 29 -27 28 -6 -2 -14 6 -17 17 -4 11 -12
20 -18 20 -7 0 -18 14 -25 30 -14 30 -37 44 -26 15 4 -10 0 -15 -12 -15 -23 1
-56 24 -47 34 4 3 -2 13 -13 21 -16 13 -17 16 -4 25 9 6 10 10 3 10 -7 0 -17
-8 -22 -17 -9 -16 -11 -14 -16 12 -4 18 -19 39 -36 50 -16 11 -29 24 -29 28 0
5 -8 1 -17 -9 -17 -16 -18 -16 -23 7 -5 21 -7 22 -13 6 -9 -25 -9 -87 1 -87 4
0 8 -9 8 -20 0 -35 -15 -6 -26 49 -11 60 -12 405 -1 494 4 31 3 57 -1 57 -4 0
-8 -10 -8 -22 0 -13 -6 -30 -13 -39 -11 -15 -14 -14 -24 7 -6 13 -7 22 -3 19
4 -3 6 4 3 16 -6 20 -6 20 -16 3 -15 -27 -28 -445 -17 -519 15 -96 135 -497
151 -503 4 -2 33 -54 63 -115 35 -72 70 -126 96 -152 22 -22 130 -104 238
-181 l197 -142 32 69 c17 38 36 69 41 69 5 0 41 -13 79 -29 152 -63 236 -59
262 12 4 11 37 28 89 46 90 32 136 59 167 100 19 25 20 41 20 308 0 154 3 279
6 277 4 -2 10 -16 14 -31 8 -33 100 -205 310 -578 228 -405 202 -369 334 -467
205 -152 285 -196 460 -252 147 -48 265 -76 319 -76 73 0 273 116 345 201 74
86 72 73 72 474 0 507 4 491 -257 925 -91 151 -203 343 -248 425 -46 83 -84
152 -86 154 -6 6 -112 -77 -131 -103 l-18 -25 -35 34 c-19 19 -136 95 -260
170 -242 147 -373 236 -362 246 4 3 39 11 77 17 39 7 88 17 110 23 l40 11
-114 54 c-121 58 -136 60 -193 40z m-81 -172 c-3 -3 -12 -4 -19 -1 -8 3 -5 6
6 6 11 1 17 -2 13 -5z m-50 -10 c-3 -3 -12 -4 -19 -1 -8 3 -5 6 6 6 11 1 17
-2 13 -5z m-82 -24 c-3 -5 -14 -10 -23 -11 -11 0 -12 -3 -4 -6 6 -2 12 -10 12
-15 0 -6 -3 -8 -7 -5 -11 12 -32 -29 -26 -52 5 -19 7 -20 22 -7 9 7 43 19 76
26 72 14 194 40 216 46 9 2 65 -29 125 -69 60 -41 198 -127 307 -191 108 -64
197 -121 197 -126 0 -12 215 -414 300 -560 40 -69 93 -165 116 -215 24 -49 44
-87 44 -83 0 3 3 15 6 25 5 15 4 15 -4 3 -8 -11 -10 -5 -9 23 1 20 5 37 8 37
16 0 50 -39 73 -86 24 -47 45 -172 46 -276 0 -53 -15 -28 -33 52 -17 74 -64
196 -73 187 -2 -2 11 -37 28 -78 l32 -74 4 -215 c4 -245 -9 -470 -31 -523 -15
-34 -20 -37 -134 -74 -121 -39 -229 -50 -310 -32 -19 4 -30 3 -27 -2 3 -5 14
-9 24 -9 10 0 22 -4 25 -10 8 -13 11 -14 -73 13 -40 13 -69 27 -65 32 4 4 3 5
-4 1 -12 -7 -83 23 -83 35 0 4 10 5 23 2 14 -3 8 4 -18 21 -22 13 -45 29 -52
35 -9 8 -11 5 -10 -9 1 -19 22 -34 36 -25 4 2 8 -2 8 -10 0 -11 -9 -9 -39 6
-28 15 -38 25 -34 36 5 12 4 13 -7 5 -11 -9 -35 4 -113 59 -140 100 -157 119
-226 254 -34 66 -88 164 -120 218 -32 53 -58 99 -58 101 0 1 -41 77 -92 167
-50 90 -126 232 -168 314 -96 188 -105 238 -105 560 0 211 1 222 25 283 26 66
115 185 159 214 29 20 45 23 36 8z m-1558 -407 c-3 -10 -5 -2 -5 17 0 19 2 27
5 18 2 -10 2 -26 0 -35z m714 -995 c11 -21 11 -22 -4 -9 -10 7 -17 17 -17 22
0 15 9 10 21 -13z"/>
<path d="M7843 8988 c-1 -7 -4 -29 -7 -48 l-6 -35 15 39 c8 22 11 44 7 48 -5
5 -9 3 -9 -4z"/>
<path d="M7784 8635 c-3 -8 -2 -43 4 -77 l9 -63 2 78 c1 74 -3 93 -15 62z"/>
<path d="M7710 8605 c0 -13 -4 -27 -10 -30 -5 -3 -10 -14 -10 -23 0 -13 2 -14
9 -3 6 9 10 10 12 2 3 -8 13 -3 26 11 l22 23 -25 22 -24 21 0 -23z"/>
<path d="M7710 8515 c0 -8 0 -18 -1 -22 0 -4 4 -9 10 -11 6 -2 11 8 11 22 0
14 -4 26 -10 26 -5 0 -10 -7 -10 -15z"/>
<path d="M8926 8025 c4 -11 11 -26 17 -32 5 -7 6 -13 3 -13 -4 0 5 -12 19 -27
20 -21 25 -36 23 -60 -2 -18 -1 -33 3 -33 9 0 6 -21 -6 -40 -8 -13 -6 -13 8
-1 28 23 32 75 8 124 -23 47 -88 119 -75 82z"/>
<path d="M8846 7923 c-6 -14 -5 -15 5 -6 7 7 10 15 7 18 -3 3 -9 -2 -12 -12z"/>
<path d="M9266 7835 c-3 -8 -1 -15 4 -15 6 0 10 7 10 15 0 8 -2 15 -4 15 -2 0
-6 -7 -10 -15z"/>
<path d="M6570 9240 c-13 -8 -12 -10 3 -10 9 0 17 5 17 10 0 12 -1 12 -20 0z"/>
<path d="M6452 9167 l-73 -50 101 -49 c56 -27 115 -52 131 -55 16 -3 32 -10
35 -14 3 -5 10 -9 17 -9 18 0 -17 31 -39 34 -12 2 -19 11 -19 27 -1 19 -5 23
-23 21 -16 -2 -22 2 -22 17 0 11 -4 23 -10 26 -15 10 -12 25 6 25 10 0 14 7
13 23 -2 12 0 28 4 35 5 7 3 12 -7 12 -8 0 -20 2 -28 4 -7 2 -46 -19 -86 -47z
m88 23 c0 -5 -2 -10 -4 -10 -3 0 -8 5 -11 10 -3 6 -1 10 4 10 6 0 11 -4 11
-10z m-16 -91 c-6 -11 -24 -2 -24 11 0 5 7 7 15 4 8 -4 12 -10 9 -15z"/>
<path d="M6698 8983 c7 -3 16 -2 19 1 4 3 -2 6 -13 5 -11 0 -14 -3 -6 -6z"/>
<path d="M6390 8870 c-9 -6 -10 -10 -3 -10 6 0 15 5 18 10 8 12 4 12 -15 0z"/>
<path d="M3298 8662 c-42 -15 -79 -30 -82 -33 -7 -7 122 -39 157 -39 14 0 29
-5 32 -10 4 -6 11 -8 16 -5 22 14 -3 115 -29 114 -9 0 -52 -13 -94 -27z"/>
<path d="M3540 8652 c0 -4 11 -43 25 -86 28 -88 31 -116 13 -116 -9 0 -10 -3
-2 -8 6 -4 23 -29 38 -57 15 -27 35 -57 44 -67 16 -15 551 -248 570 -248 21 0
42 -40 43 -81 0 -34 2 -39 9 -24 5 11 9 37 9 57 1 34 -3 39 -69 83 -38 25 -91
65 -119 88 -27 23 -104 89 -172 147 -68 57 -128 109 -134 115 -37 41 -255 209
-255 197z"/>
<path d="M6875 8485 c47 -63 53 -69 29 -27 -10 18 -30 43 -43 55 -14 13 -8 1
14 -28z"/>
<path d="M6938 8425 c-11 -24 -10 -29 12 -47 14 -11 19 -17 12 -13 -11 6 -12
3 -3 -14 7 -11 14 -21 17 -21 3 0 2 6 -1 13 -4 6 2 1 13 -13 16 -19 18 -28 9
-39 -9 -11 -9 -13 -1 -8 19 11 114 -46 100 -60 -4 -4 -11 -1 -15 6 -5 8 -11 9
-15 3 -3 -6 8 -15 24 -21 58 -20 49 12 -33 124 -5 6 -12 4 -21 -7 -11 -16 -13
-13 -14 18 -1 33 -42 104 -42 72 0 -8 3 -18 8 -24 4 -5 0 -2 -9 8 -12 12 -19
14 -28 5 -6 -6 -11 -7 -11 -1 0 6 5 15 12 22 6 6 9 15 5 18 -3 4 -12 -6 -19
-21z m141 -145 c7 0 9 -4 6 -10 -8 -13 -42 9 -42 28 0 12 2 12 12 -2 7 -9 18
-16 24 -16z"/>
<path d="M7031 8354 c0 -11 3 -14 6 -6 3 7 2 16 -1 19 -3 4 -6 -2 -5 -13z"/>
<path d="M7136 8205 c-2 -7 1 -16 9 -19 7 -2 16 1 19 9 2 7 -1 16 -9 19 -7 2
-16 -1 -19 -9z"/>
<path d="M7013 7790 c2 -8 12 -16 23 -17 13 -2 15 -1 4 4 -8 3 -19 11 -23 17
-6 7 -7 6 -4 -4z"/>
<path d="M3840 7715 c0 -9 5 -13 10 -10 6 3 10 -1 10 -10 0 -9 4 -14 9 -11 11
7 23 -56 15 -78 -5 -12 -2 -15 10 -10 22 8 20 32 -6 84 -24 46 -48 64 -48 35z"/>
<path d="M3356 7519 c-14 -11 -26 -26 -26 -34 0 -7 -10 -20 -22 -28 l-23 -16
28 0 c15 -1 27 2 27 7 0 4 14 22 30 41 16 18 27 37 24 42 -7 12 -8 12 -38 -12z"/>
<path d="M3565 7510 c-16 -17 -16 -20 -3 -15 9 4 19 13 22 21 7 19 2 18 -19
-6z"/>
<path d="M3432 7375 c-29 -58 -52 -108 -52 -113 -1 -4 -9 -25 -20 -47 -24 -49
-25 -88 -4 -109 41 -41 116 -29 232 36 95 55 169 122 221 202 36 55 41 68 31
85 -6 12 -15 21 -21 21 -6 0 -7 -5 -3 -12 5 -7 3 -8 -6 -3 -7 4 -15 3 -19 -3
-67 -106 -176 -197 -316 -264 -66 -31 -105 -36 -105 -14 0 8 4 17 9 20 4 3 16
27 26 53 17 47 54 147 70 188 8 21 16 65 11 65 -1 0 -26 -47 -54 -105z"/>
<path d="M1677 7434 c-3 -3 -3 -13 0 -22 4 -10 2 -14 -2 -9 -17 15 -83 -110
-104 -198 -8 -35 -12 -228 -14 -630 l-2 -580 23 -46 c17 -36 66 -85 208 -209
l186 -163 -8 -41 c-4 -23 -10 -104 -13 -181 l-6 -140 -125 -83 c-69 -46 -217
-140 -329 -210 -229 -142 -298 -199 -336 -276 -25 -51 -26 -59 -28 -267 -2
-204 -1 -217 21 -272 16 -38 46 -82 85 -124 38 -40 52 -61 37 -53 -29 16 -51
36 -44 42 2 3 -7 10 -21 16 -18 8 -25 8 -25 1 0 -7 -6 -7 -16 2 -14 11 -18 11
-29 -4 -7 -10 -19 -15 -29 -11 -10 4 -16 1 -16 -9 0 -8 -12 -18 -26 -21 -17
-5 -24 -12 -20 -21 3 -9 -6 -19 -25 -27 -16 -7 -29 -19 -29 -25 0 -7 -7 -13
-16 -13 -11 0 -15 -6 -11 -20 3 -11 1 -20 -5 -20 -5 0 -7 -4 -4 -9 3 -5 -3
-11 -13 -14 -12 -3 -24 -20 -32 -46 -7 -22 -18 -41 -26 -41 -20 0 -18 -153 2
-170 8 -7 15 -21 15 -31 0 -10 10 -21 21 -24 17 -6 19 -9 8 -16 -11 -7 -10 -9
3 -9 10 0 17 -6 15 -12 -1 -7 3 -12 10 -11 6 1 16 -4 23 -12 6 -7 18 -11 26
-8 8 3 14 -1 14 -10 0 -9 108 -88 258 -188 141 -95 298 -200 347 -234 50 -34
95 -60 102 -58 6 2 15 -1 19 -8 4 -8 3 -9 -4 -5 -7 4 -12 5 -12 2 0 -3 9 -10
20 -16 11 -6 20 -7 19 -3 -5 27 1 35 17 22 9 -7 18 -9 22 -3 10 13 52 16 52 4
0 -6 -5 -10 -11 -10 -5 0 -7 -4 -4 -10 3 -5 15 -10 26 -10 14 0 18 -4 12 -12
-8 -15 35 12 87 53 l36 27 69 -37 c93 -49 347 -194 635 -361 129 -76 377 -220
550 -320 173 -101 397 -232 496 -291 100 -59 249 -144 330 -189 82 -45 190
-106 239 -135 212 -124 417 -215 580 -258 360 -95 670 -71 923 69 112 63 551
318 847 492 154 91 307 181 340 200 82 48 1251 750 1509 906 114 70 249 155
300 188 122 82 252 214 294 298 35 72 53 138 34 126 -7 -4 -12 -1 -12 8 0 9
-4 16 -9 16 -5 0 -7 10 -4 23 4 22 4 22 -13 2 l-16 -20 4 20 c3 14 -5 28 -26
45 -17 14 -27 19 -23 13 5 -8 3 -13 -5 -14 -7 -1 -20 -2 -28 -3 -8 0 -14 -6
-13 -13 2 -7 -3 -10 -11 -7 -8 3 -31 -5 -53 -19 -21 -13 -49 -30 -63 -37 -52
-26 0 10 130 92 599 376 704 455 767 575 46 87 56 147 51 328 -3 145 -6 165
-28 210 -36 74 -131 163 -276 258 -148 96 -672 413 -1104 667 -162 95 -459
271 -660 390 -201 120 -489 289 -640 376 -151 87 -312 180 -358 206 -46 26
-86 48 -91 48 -4 0 -6 -14 -3 -30 3 -24 14 -35 46 -52 22 -11 149 -84 281
-163 132 -78 281 -165 330 -192 131 -72 514 -299 705 -418 91 -56 318 -194
505 -307 872 -525 983 -596 1059 -678 61 -65 78 -110 74 -187 -3 -52 -10 -71
-43 -119 -22 -32 -63 -76 -92 -98 -53 -42 -507 -324 -663 -411 -282 -160
-1069 -631 -1450 -870 -113 -71 -279 -173 -368 -227 -139 -84 -258 -159 -607
-383 -217 -139 -708 -441 -762 -469 -99 -49 -165 -66 -283 -73 -192 -10 -333
31 -543 157 -167 100 -910 542 -1252 745 -288 170 -354 211 -725 440 -91 56
-246 152 -345 212 -187 115 -556 344 -730 453 -106 66 -141 93 -88 66 49 -24
82 -28 268 -31 133 -2 179 -7 209 -20 125 -53 244 -75 419 -75 l127 0 0 -59
c0 -46 4 -60 18 -66 25 -12 52 -6 101 21 24 13 47 22 51 19 4 -3 10 2 14 10 3
8 12 15 21 15 8 0 15 6 15 14 0 8 -36 26 -89 46 -49 17 -158 72 -243 122 -84
50 -193 114 -243 143 -189 110 -420 247 -424 251 -2 2 -2 6 1 9 3 3 41 -16 84
-43 68 -42 202 -120 349 -202 22 -12 92 -53 155 -90 63 -37 135 -78 160 -92
l45 -25 -3 391 c-2 295 -6 386 -14 371 -6 -11 -16 -23 -22 -27 -7 -5 -4 -8 7
-8 15 0 16 -3 5 -22 -25 -44 -38 -53 -59 -40 -23 15 -49 16 -49 2 0 -5 6 -10
14 -10 8 0 17 -3 19 -7 3 -5 -42 -9 -99 -9 -87 -2 -104 1 -104 13 0 12 -7 14
-29 10 -19 -4 -32 -2 -35 6 -5 9 -7 9 -12 0 -7 -15 -54 -18 -54 -4 0 5 -10 11
-22 13 -13 2 -24 9 -24 16 -1 6 -2 19 -3 28 -1 10 -7 14 -16 11 -8 -4 -27 7
-45 24 -18 18 -37 29 -45 25 -13 -5 -15 21 -15 187 0 106 5 208 10 227 10 34
9 36 -45 87 -51 49 -77 83 -37 52 9 -8 27 -20 40 -27 21 -12 24 -10 42 34 39
90 93 263 87 278 -4 9 -28 31 -53 48 -145 100 -276 197 -325 239 -96 83 -93
64 -86 508 4 219 3 374 -2 359 -5 -14 -10 -111 -10 -214 -1 -104 -4 -190 -7
-193 -2 -3 -4 157 -3 354 l1 360 -38 28 c-49 36 -49 36 -29 33 9 -1 29 -14 45
-29 33 -32 46 -34 59 -9 12 22 -11 46 -28 29 -6 -6 -14 -7 -18 -2 -5 4 -2 10
5 12 6 3 12 14 12 25 0 17 -4 19 -27 13 -16 -4 -38 -7 -50 -8 -13 -1 -23 -6
-23 -10 0 -5 -5 -5 -10 -2 -6 4 -4 12 5 21 8 9 12 20 9 26 -4 7 -2 8 5 4 6 -4
9 -12 5 -18 -4 -6 3 -8 17 -6 26 3 38 33 20 51 -7 7 -15 6 -26 -3 -14 -12 -14
-10 -5 14 5 15 10 29 10 32 0 6 -16 5 -23 -2z m106 -169 c-3 -9 -8 -14 -10
-11 -3 3 -2 9 2 15 9 16 15 13 8 -4z m160 -2190 c-10 -8 -99 -62 -198 -121
-327 -195 -413 -263 -435 -346 -38 -141 63 -278 331 -448 993 -627 3085 -1882
3356 -2012 127 -61 204 -78 363 -78 214 0 292 30 615 232 110 69 297 185 415
258 118 73 296 185 395 248 262 168 927 578 1195 737 85 51 252 151 370 222
118 72 296 178 395 235 179 105 293 173 540 325 72 44 155 95 185 113 82 50
167 117 195 154 44 57 56 100 56 204 l1 97 16 -35 c10 -22 16 -64 17 -115 0
-70 -4 -86 -30 -133 -32 -59 -97 -122 -188 -184 -58 -39 -497 -316 -550 -347
-43 -24 -467 -275 -587 -346 -215 -128 -769 -464 -890 -540 -69 -43 -215 -133
-325 -200 -110 -67 -292 -180 -405 -251 -113 -72 -268 -168 -345 -214 -77 -46
-216 -131 -310 -190 -274 -172 -341 -210 -429 -245 -130 -53 -226 -68 -385
-63 -234 8 -228 6 -1176 560 -166 97 -375 221 -465 275 -91 55 -241 143 -333
197 -270 155 -1004 603 -1444 880 -462 291 -573 377 -626 485 -35 71 -37 163
-6 228 35 72 63 92 434 311 66 39 152 92 190 119 68 47 70 48 73 25 2 -14 -4
-29 -15 -37z m250 -175 c3 -11 1 -18 -4 -14 -5 3 -9 12 -9 20 0 20 7 17 13 -6z
m-261 -1268 c46 -26 116 -66 156 -87 39 -22 72 -45 72 -52 0 -7 -4 -13 -10
-13 -5 0 -10 5 -10 10 0 6 -4 10 -9 10 -13 0 -278 158 -286 170 -10 16 0 12
87 -38z m6918 13 c0 -2 -10 -9 -22 -15 -22 -11 -22 -10 -4 4 21 17 26 19 26
11z m-110 -69 c0 -2 -7 -7 -16 -10 -8 -3 -12 -2 -9 4 6 10 25 14 25 6z m-365
-71 c-16 -14 -34 -25 -39 -25 -6 0 5 11 24 25 43 32 54 32 15 0z m-5982 -149
c71 -43 126 -80 123 -83 -2 -2 -51 23 -108 56 -57 33 -116 65 -131 72 -15 7
-27 19 -27 26 0 19 -6 22 143 -71z m5677 -51 c-94 -59 -93 -58 -85 -45 5 8 3
11 -6 8 -8 -3 -13 -10 -12 -16 2 -7 -4 -9 -14 -5 -10 4 -14 2 -9 -5 3 -6 1
-14 -5 -18 -8 -4 -9 -3 -5 4 15 24 -10 11 -36 -18 -14 -16 -32 -30 -39 -30
-21 0 31 47 95 86 34 21 69 37 78 36 10 0 17 4 15 11 -1 6 8 12 21 13 12 1 25
4 29 8 3 3 11 6 17 6 6 0 -14 -16 -44 -35z"/>
<path d="M8004 3284 c-18 -14 -18 -15 4 -4 12 6 22 13 22 15 0 8 -5 6 -26 -11z"/>
<path d="M4272 7339 c-1 -59 -4 -122 -7 -140 l-5 -34 10 33 c6 18 9 81 7 140
l-3 107 -2 -106z"/>
<path d="M1836 7333 c-6 -14 -5 -15 5 -6 7 7 10 15 7 18 -3 3 -9 -2 -12 -12z"/>
<path d="M3512 7305 c-12 -25 -20 -45 -17 -45 7 0 47 81 43 86 -3 2 -14 -17
-26 -41z"/>
<path d="M5910 7239 c0 -8 26 -30 58 -50 31 -20 165 -105 297 -189 335 -213
378 -240 389 -240 9 0 -27 29 -168 136 -33 25 -165 108 -295 186 -130 78 -246
148 -258 156 -19 12 -23 12 -23 1z"/>
<path d="M2885 7139 c-6 -17 -9 -19 -16 -8 -5 8 -9 9 -9 3 0 -6 -10 -22 -22
-36 -13 -13 -30 -37 -38 -54 -8 -16 -18 -31 -22 -34 -4 -4 -9 -24 -11 -46 -2
-23 -7 -46 -11 -53 -4 -6 -4 -11 1 -11 4 0 7 -41 6 -92 -1 -83 1 -94 23 -123
13 -18 24 -35 24 -39 0 -4 16 -26 35 -49 19 -22 36 -48 37 -56 1 -9 4 126 8
299 3 173 5 316 4 318 -1 2 -5 -6 -9 -19z"/>
<path d="M4257 7154 c-4 -4 -7 -14 -7 -23 0 -11 3 -12 11 -4 6 6 10 16 7 23
-2 6 -7 8 -11 4z"/>
<path d="M4314 7033 c-16 -43 -59 -128 -96 -190 -38 -62 -68 -118 -68 -124 0
-25 -133 -268 -216 -395 -41 -63 -212 -278 -225 -282 -5 -2 -9 1 -9 7 0 6 5
11 11 11 5 0 7 5 3 12 -5 7 -3 8 6 3 9 -6 10 -1 5 16 -5 19 -4 21 4 9 9 -13
11 -13 11 3 0 59 -85 -48 -236 -297 -51 -84 -97 -150 -107 -152 -9 -1 -38 -19
-64 -39 -44 -34 -42 -32 13 21 42 41 76 87 109 149 74 138 85 157 199 348 58
98 106 182 106 187 0 6 4 10 9 10 10 0 121 176 121 191 0 5 4 9 9 9 4 0 6 11
3 25 l-4 25 -27 -20 c-14 -12 -47 -35 -74 -53 -28 -19 -50 -42 -54 -57 -10
-42 -31 -78 -146 -250 -165 -248 -383 -549 -475 -657 -43 -52 -45 -53 -86 -46
-22 3 -58 12 -80 20 -52 18 -56 16 -21 -7 17 -11 36 -18 43 -15 6 2 12 0 12
-6 0 -6 6 -9 13 -6 22 8 43 -9 30 -25 -17 -20 5 -44 51 -57 22 -5 42 -8 46 -6
4 2 15 -1 25 -8 16 -12 16 -14 1 -30 -12 -11 -33 -16 -67 -15 -28 0 -45 4 -39
8 14 9 -39 35 -165 82 -90 33 -140 44 -243 52 -70 6 -75 5 -145 -33 -40 -21
-96 -46 -124 -56 -61 -19 -72 -31 -47 -51 58 -44 205 -137 309 -196 136 -77
164 -82 273 -48 78 25 199 81 232 107 l24 21 -43 21 c-24 13 -41 24 -39 26 1
2 28 -3 58 -11 30 -8 73 -14 95 -13 22 0 45 0 50 0 6 -1 -35 -25 -90 -55 -55
-29 -143 -75 -195 -103 -52 -28 -111 -56 -131 -62 l-36 -12 -6 -112 c-4 -61
-7 -263 -7 -447 l0 -336 31 -11 c17 -7 38 -9 47 -6 13 3 14 2 4 -4 -9 -7 -1
-14 29 -26 23 -9 46 -14 52 -10 6 4 7 1 2 -7 -6 -10 -4 -12 8 -7 10 3 17 2 17
-4 0 -6 4 -8 9 -5 5 3 11 -1 14 -8 6 -16 47 -18 47 -3 0 4 5 5 10 2 6 -4 108
58 228 137 119 79 274 182 344 227 124 82 126 84 133 126 6 41 44 95 67 95 5
0 14 4 21 10 7 5 36 28 64 50 86 66 83 48 83 470 l1 372 -52 56 c-46 52 -101
100 -139 122 -13 8 -11 12 8 25 12 9 22 22 22 28 0 13 119 98 241 173 41 25
120 77 177 114 l102 69 0 -360 c0 -401 0 -400 76 -552 28 -55 33 -72 22 -78
-11 -7 -11 -9 1 -9 8 0 11 -6 7 -16 -4 -12 -2 -15 9 -10 8 3 14 1 12 -4 -2
-10 71 -59 278 -183 82 -50 164 -101 181 -114 17 -13 34 -23 38 -23 5 0 20 -8
34 -19 15 -10 44 -28 65 -40 21 -12 49 -29 63 -37 23 -16 24 -16 17 2 -6 17
-5 17 10 5 9 -7 15 -17 12 -21 -3 -5 0 -12 6 -16 8 -4 9 -3 5 4 -4 7 -2 13 3
13 6 1 16 2 22 3 6 0 16 9 23 19 7 9 17 17 22 17 5 0 32 12 61 27 48 25 53 32
59 69 5 34 14 47 52 76 94 70 253 180 557 383 171 114 319 215 329 225 19 19
19 19 -1 14 -11 -3 -27 1 -37 11 -15 15 -16 15 -16 0 0 -9 -6 -15 -12 -12 -14
5 -14 6 -3 49 5 21 3 27 -14 33 -11 3 -18 12 -15 20 3 7 1 16 -4 19 -14 8 -22
-18 -11 -35 11 -18 11 -29 0 -29 -6 0 -16 12 -23 27 -7 14 -19 28 -26 29 -7 1
-8 0 -2 -3 15 -7 12 -23 -4 -23 -8 0 -16 7 -20 15 -3 8 -17 20 -31 25 -15 6
-24 14 -21 18 3 5 -6 19 -19 30 -14 12 -25 19 -25 15 0 -4 -5 -2 -12 5 -7 7
-21 12 -33 12 -12 0 -26 5 -33 12 -9 9 -15 9 -24 0 -7 -7 -17 -12 -22 -12 -6
0 -4 5 4 10 13 8 12 10 -2 10 -10 0 -18 5 -18 10 0 6 -7 10 -15 10 -9 0 -15 9
-15 25 0 28 -3 30 -29 13 -11 -6 -26 -8 -37 -3 -17 7 -17 9 -2 12 13 3 15 9 8
28 -7 20 -6 22 11 18 17 -5 25 9 20 39 0 4 8 5 18 3 19 -3 36 17 24 29 -11 10
-25 7 -18 -5 4 -6 1 -9 -7 -7 -7 1 -31 -8 -53 -21 -71 -44 -188 -112 -245
-143 -30 -17 -99 -55 -153 -85 l-98 -56 -87 53 c-195 118 -436 304 -473 364
-10 17 -19 39 -19 49 0 16 1 16 18 0 11 -10 17 -21 15 -26 -2 -4 4 -10 14 -14
10 -4 36 -24 58 -44 95 -90 271 -217 398 -289 54 -30 61 -32 97 -21 86 26 356
183 624 364 54 37 104 67 110 67 6 0 5 4 -3 9 -9 6 -20 2 -33 -11 -17 -17 -22
-18 -30 -7 -8 11 -9 10 -4 -3 3 -10 1 -18 -4 -18 -6 0 -10 7 -10 15 0 12 -4
13 -19 5 -29 -15 -41 -12 -41 10 0 15 -7 20 -24 20 -16 0 -27 7 -31 20 -8 26
-22 25 -31 -2 -6 -20 -7 -20 -17 -3 -7 14 -7 20 1 23 7 2 12 12 12 23 0 10 5
19 10 19 15 0 12 20 -4 26 -12 5 -37 -11 -80 -51 -25 -24 -124 -94 -169 -120
-52 -30 -78 -25 -35 6 49 36 26 52 -93 64 -65 7 -72 2 -87 -68 -9 -46 -9 -49
15 -58 13 -5 30 -9 36 -9 22 -1 92 -47 92 -60 0 -39 -46 -34 -199 20 -18 6
-19 16 -18 126 1 65 5 173 8 240 7 138 11 129 -81 177 -33 18 -65 43 -72 57
-12 24 -13 24 -13 3 0 -12 -5 -25 -12 -29 -8 -5 -9 -2 -5 11 7 16 6 16 -16 2
-123 -80 -208 -151 -245 -204 -12 -17 -35 -70 -50 -118 -21 -63 -31 -82 -36
-69 -4 10 -10 123 -13 251 -3 128 -7 233 -9 233 -1 0 -67 -44 -146 -97 -146
-100 -228 -173 -228 -204 0 -10 -4 -21 -10 -24 -5 -3 -10 -35 -10 -70 0 -60
-2 -64 -37 -95 -20 -18 -134 -97 -253 -174 -259 -171 -245 -162 -236 -148 3 6
39 32 78 59 40 26 89 64 109 85 39 40 111 179 182 353 25 61 86 202 135 315
95 218 122 296 122 354 0 32 -7 41 -67 91 -37 30 -70 55 -73 55 -4 0 -20 -35
-36 -77z m111 -23 c3 -6 -1 -7 -9 -4 -18 7 -21 14 -7 14 6 0 13 -4 16 -10z
m1518 -951 c4 -16 3 -18 -9 -8 -16 13 -19 29 -5 29 5 0 11 -9 14 -21z m-2100
-276 c-7 -2 -13 -12 -13 -20 0 -10 -6 -13 -16 -9 -13 5 -15 2 -11 -13 3 -13 0
-18 -7 -15 -7 3 -34 -4 -61 -16 -64 -27 -70 -18 -8 14 26 14 62 34 78 45 17
12 35 21 40 20 6 0 4 -3 -2 -6z m2047 -53 c0 -5 -2 -10 -4 -10 -3 0 -8 5 -11
10 -3 6 -1 10 4 10 6 0 11 -4 11 -10z m-2110 -60 c-24 -15 -37 -11 -16 5 11 8
22 12 25 9 3 -3 -1 -9 -9 -14z m225 -161 c-8 -11 -216 -149 -265 -174 -27 -14
-30 -14 -30 0 0 18 36 43 175 125 96 57 134 72 120 49z"/>
<path d="M2741 6858 c-1 -12 -7 -16 -18 -12 -16 5 -16 4 0 -6 22 -14 30 -8 24
17 -4 16 -5 16 -6 1z"/>
<path d="M2712 6814 c10 -10 20 -15 24 -12 3 4 -5 12 -18 18 -22 12 -22 12 -6
-6z"/>
<path d="M3911 6581 c-1 -20 1 -21 14 -11 16 14 21 25 6 16 -5 -4 -12 0 -14 6
-3 7 -6 2 -6 -11z"/>
<path d="M5875 6239 c-4 -6 -5 -12 -2 -15 2 -3 7 2 10 11 7 17 1 20 -8 4z"/>
<path d="M3742 6160 c-14 -23 -15 -30 -4 -30 4 0 12 11 19 25 13 30 3 33 -15
5z"/>
<path d="M5444 6139 c0 -10 4 -19 8 -19 4 0 8 6 8 14 0 8 -4 17 -8 20 -4 2 -8
-4 -8 -15z"/>
<path d="M5938 5913 c7 -3 16 -2 19 1 4 3 -2 6 -13 5 -11 0 -14 -3 -6 -6z"/>
<path d="M5875 5810 c-3 -6 1 -7 9 -4 18 7 21 14 7 14 -6 0 -13 -4 -16 -10z"/>
<path d="M6150 5649 c0 -5 5 -7 10 -4 6 3 10 8 10 11 0 2 -4 4 -10 4 -5 0 -10
-5 -10 -11z"/>
<path d="M6180 5629 c0 -6 -7 -8 -17 -4 -13 4 -15 3 -7 -5 6 -6 18 -8 27 -4
18 7 23 24 7 24 -5 0 -10 -5 -10 -11z"/>
<path d="M760 5588 c1 -18 21 -43 47 -56 37 -20 39 -13 5 17 -17 17 -32 35
-32 40 0 6 -4 11 -10 11 -5 0 -10 -6 -10 -12z"/>
<path d="M6770 5514 c-76 -40 -71 -38 -64 -19 8 19 0 19 -18 1 -8 -7 -33 -23
-57 -35 -51 -26 -100 -78 -101 -106 0 -11 7 -33 15 -49 12 -22 15 -67 15 -200
0 -94 -4 -176 -8 -182 -4 -6 -23 -19 -42 -29 -19 -10 -61 -35 -92 -57 -52 -35
-58 -42 -58 -74 0 -64 24 -101 90 -142 34 -20 114 -70 178 -111 256 -162 409
-250 455 -261 75 -19 281 -9 337 17 25 11 160 97 301 191 141 93 267 175 279
182 12 7 18 15 13 19 -6 3 -14 24 -18 46 -8 41 -24 302 -24 388 0 32 -4 47
-10 42 -8 -4 -8 2 -1 21 10 25 9 26 -14 20 -29 -7 -35 5 -28 52 3 18 -1 44 -8
57 -11 21 -16 23 -29 12 -12 -10 -13 -9 -6 3 4 8 -5 3 -21 -11 -16 -14 -76
-57 -134 -95 -161 -106 -279 -194 -292 -217 -8 -15 -14 -97 -16 -249 -2 -130
-8 -225 -13 -222 -5 3 -9 0 -9 -5 0 -20 -31 -11 -40 12 -6 15 -9 17 -9 6 -1
-19 -50 -32 -68 -18 -7 6 -12 6 -15 -1 -5 -15 -38 -1 -38 16 0 24 -17 15 -26
-13 -6 -18 -11 54 -14 203 -5 212 -7 234 -25 254 -18 20 -106 80 -359 243
-109 71 -146 112 -146 162 0 34 70 105 150 152 73 43 52 41 -30 -3z m-145 -74
c-3 -5 -12 -10 -18 -10 -7 0 -6 4 3 10 19 12 23 12 15 0z"/>
<path d="M7890 5341 c0 -6 4 -12 8 -15 5 -3 9 1 9 9 0 8 -4 15 -9 15 -4 0 -8
-4 -8 -9z"/>
<path d="M5980 5079 c-58 -39 -115 -80 -127 -91 -42 -40 -22 -76 54 -98 78
-24 99 -7 173 135 44 84 51 125 23 125 -10 0 -65 -32 -123 -71z"/>
<path d="M7990 5030 c0 -5 9 -12 20 -15 11 -3 20 -11 20 -17 0 -6 3 -8 7 -5 3
4 13 1 21 -6 10 -8 13 -8 9 -1 -10 17 -77 55 -77 44z"/>
<path d="M2735 5020 c3 -5 8 -10 11 -10 2 0 4 5 4 10 0 6 -5 10 -11 10 -5 0
-7 -4 -4 -10z"/>
<path d="M8201 4774 c0 -11 3 -14 6 -6 3 7 2 16 -1 19 -3 4 -6 -2 -5 -13z"/>
<path d="M6350 4643 c0 -10 -38 -58 -85 -107 -137 -143 -177 -255 -122 -337
12 -19 28 -34 34 -34 7 0 18 -6 25 -14 11 -12 10 -13 -2 -6 -17 9 -11 3 35
-35 22 -19 25 -20 12 -4 -22 26 -22 35 1 31 25 -4 43 -17 37 -28 -4 -5 3 -9
14 -9 20 0 25 -19 8 -31 -5 -3 -1 -9 8 -12 10 -4 14 -3 9 4 -4 7 1 9 12 7 11
-2 18 -11 18 -20 -1 -14 2 -15 17 -5 11 7 19 18 19 26 0 8 3 12 6 8 4 -3 2
-20 -4 -37 -10 -27 -8 -32 11 -44 12 -7 39 -13 60 -11 23 1 37 -2 37 -10 0
-14 42 -35 70 -35 11 0 20 -4 20 -10 0 -5 17 -12 37 -16 20 -4 47 -18 60 -33
15 -17 21 -20 17 -8 -4 11 -1 17 10 17 9 0 16 -8 16 -19 0 -29 18 -35 23 -9 4
23 4 23 6 -1 1 -19 5 -22 24 -18 21 6 21 6 3 -8 -16 -12 -17 -15 -4 -15 9 0
22 -2 30 -3 7 -2 9 -1 3 1 -5 3 6 11 25 17 38 13 105 2 128 -22 7 -7 15 -13
17 -13 5 0 0 24 -8 38 -5 6 -4 12 1 12 6 0 12 -7 16 -15 3 -8 14 -15 25 -15
11 0 28 -3 38 -7 14 -6 10 -10 -22 -20 l-40 -12 38 2 c21 0 42 -4 46 -11 4 -7
21 -14 37 -15 23 -2 29 -7 31 -25 1 -30 12 -40 22 -23 5 8 10 9 12 3 3 -8 24
-6 66 5 35 8 61 18 59 22 -2 3 8 6 22 7 43 2 312 136 333 167 3 5 9 8 13 8 18
-3 20 0 6 10 -12 9 -12 10 4 5 37 -13 123 54 117 91 -1 6 2 14 7 17 10 6 9
-24 -2 -42 -4 -6 -3 -12 3 -12 5 0 13 5 16 11 4 5 18 14 32 20 13 5 22 13 18
18 -7 12 12 24 44 27 14 2 30 9 36 17 5 8 15 12 22 10 6 -2 14 0 16 5 3 4 -6
8 -20 8 -15 -1 -28 5 -30 12 -3 8 2 10 14 6 11 -4 14 -3 7 3 -12 9 -12 48 -1
59 4 4 7 14 7 23 -1 14 -2 14 -14 -1 -15 -20 -65 -12 -76 13 -4 7 -12 24 -18
36 -7 12 -9 35 -6 51 4 17 1 32 -5 36 -6 4 -9 12 -6 17 4 5 -2 9 -12 9 -14 0
-18 9 -20 35 -1 23 3 35 12 35 7 0 15 9 18 20 3 13 11 18 20 14 8 -3 17 -1 21
4 10 17 -34 6 -56 -15 -13 -11 -31 -23 -42 -27 -29 -10 -275 -168 -312 -201
l-35 -30 -2 -110 -2 -110 -75 -6 c-41 -4 -103 -7 -137 -8 l-62 -1 -3 111 -3
112 -64 17 c-35 10 -89 31 -120 47 -106 55 -566 345 -593 374 -23 24 -28 26
-28 12z m-29 -76 c-10 -9 -11 -8 -5 6 3 10 9 15 12 12 3 -3 0 -11 -7 -18z m28
-45 c0 -16 -3 -21 -6 -12 -4 8 -13 20 -20 25 -12 9 -10 11 6 12 17 1 21 -4 20
-25z m-2 -129 c-2 -16 -4 -3 -4 27 0 30 2 43 4 28 2 -16 2 -40 0 -55z m-133
-208 c-7 -18 -8 -18 -14 1 -9 23 -1 39 11 27 6 -6 6 -18 3 -28z m1716 -69 c0
-8 6 -16 13 -19 17 -6 5 -16 -23 -19 -13 -2 -25 3 -28 12 -5 13 -3 13 12 1 16
-13 17 -12 11 12 -5 17 -3 27 4 27 6 0 11 -6 11 -14z m-50 -47 c0 -5 -4 -9
-10 -9 -5 0 -10 7 -10 16 0 8 5 12 10 9 6 -3 10 -10 10 -16z m-1180 -155 c0
-8 -4 -12 -10 -9 -5 3 -10 10 -10 16 0 5 5 9 10 9 6 0 10 -7 10 -16z m950 2
c0 -3 -4 -8 -10 -11 -5 -3 -10 -1 -10 4 0 6 5 11 10 11 6 0 10 -2 10 -4z
m-845 -46 c3 -5 1 -10 -4 -10 -6 0 -11 5 -11 10 0 6 2 10 4 10 3 0 8 -4 11
-10z"/>
<path d="M8170 4274 c-25 -31 -53 -64 -63 -73 -10 -9 -23 -25 -28 -36 -6 -11
21 12 59 51 38 39 71 80 74 92 4 12 5 22 5 22 -1 0 -22 -25 -47 -56z"/>
<path d="M7890 4285 c0 -15 4 -24 10 -20 6 3 10 12 10 20 0 8 -4 17 -10 20 -6
4 -10 -5 -10 -20z"/>
<path d="M7982 4190 c0 -14 2 -19 5 -12 2 6 2 18 0 25 -3 6 -5 1 -5 -13z"/>
<path d="M6453 3967 c10 -7 41 -26 68 -44 27 -18 47 -28 43 -22 -8 13 -110 79
-121 78 -4 0 0 -6 10 -12z"/>
<path d="M6590 3886 c0 -3 9 -10 20 -16 11 -6 20 -8 20 -6 0 3 -9 10 -20 16
-11 6 -20 8 -20 6z"/>
<path d="M6650 3855 c0 -2 9 -9 20 -15 15 -8 25 -8 38 0 11 8 12 10 2 7 -8 -2
-25 0 -37 4 -13 5 -23 7 -23 4z"/>
<path d="M6754 3800 c22 -11 44 -20 50 -20 15 1 -33 26 -64 34 -15 4 -9 -2 14
-14z"/>
<path d="M6886 3788 c3 -4 11 -5 19 -1 21 7 19 12 -4 10 -11 0 -18 -5 -15 -9z"/>
<path d="M6840 3760 c8 -5 20 -10 25 -10 6 0 3 5 -5 10 -8 5 -19 10 -25 10 -5
0 -3 -5 5 -10z"/>
<path d="M9156 3693 c-4 -9 -2 -21 4 -27 7 -7 10 -2 10 17 0 31 -5 34 -14 10z"/>
<path d="M5515 3056 c-11 -6 -63 -40 -115 -76 -126 -87 -271 -180 -344 -220
-56 -32 -59 -33 -72 -15 -7 10 -15 21 -16 24 -2 4 -70 47 -153 95 -82 49 -179
106 -215 127 l-65 39 -14 -32 c-24 -58 -25 -100 -3 -128 27 -34 157 -102 272
-142 90 -31 104 -33 252 -35 86 -1 170 2 188 7 50 14 156 107 209 184 47 69
106 175 99 181 -2 1 -12 -2 -23 -9z m-378 -352 c-3 -3 -12 -4 -19 -1 -8 3 -5
6 6 6 11 1 17 -2 13 -5z"/>
<path d="M8833 2683 c-10 -16 -31 -45 -47 -66 l-31 -38 25 -20 c14 -10 48 -31
77 -45 48 -24 55 -25 107 -14 31 6 58 16 61 21 4 5 2 9 -4 9 -6 0 -35 18 -65
41 -52 39 -86 88 -86 123 0 25 -18 19 -37 -11z"/>
<path d="M2291 2023 c-6 -7 -23 -13 -36 -13 -29 0 -30 -2 -9 -41 23 -45 87
-70 174 -68 38 1 70 3 70 4 0 2 -24 17 -54 34 -30 17 -57 39 -60 49 -3 10 -21
25 -39 33 -27 12 -36 13 -46 2z"/>
</g>
</svg>
