<?xml version="1.0" standalone="no"?>
<!DOCTYPE svg PUBLIC "-//W3C//DTD SVG 20010904//EN"
 "http://www.w3.org/TR/2001/REC-SVG-20010904/DTD/svg10.dtd">
<svg version="1.0" xmlns="http://www.w3.org/2000/svg"
 width="1080.000000pt" height="1080.000000pt" viewBox="0 0 1080.000000 1080.000000"
 preserveAspectRatio="xMidYMid meet">

<g transform="translate(0.000000,1080.000000) scale(0.100000,-0.100000)"
fill="#000000" stroke="none">
<path d="M9614 10789 c-4 -6 -19 -8 -35 -5 -22 4 -34 0 -46 -14 -10 -11 -29
-20 -43 -20 -14 0 -32 -4 -40 -10 -11 -7 -9 -11 12 -19 18 -7 28 -20 33 -41 4
-17 4 -34 1 -37 -3 -4 -6 1 -6 9 0 9 -9 18 -20 21 -15 4 -20 0 -20 -15 0 -11
-8 -22 -20 -25 -17 -5 -20 -14 -20 -68 0 -58 -2 -63 -20 -58 -11 3 -31 2 -44
-1 -20 -5 -25 -13 -28 -44 -3 -35 -5 -37 -40 -40 -29 -2 -38 -8 -38 -21 0 -10
9 -21 20 -24 26 -7 28 -50 3 -45 -10 2 -19 13 -21 26 -2 14 -10 22 -23 22 -17
0 -19 7 -19 60 0 41 4 60 13 60 9 0 9 2 0 8 -6 4 -13 25 -16 47 -2 22 -4 -26
-5 -107 -2 -124 -4 -148 -17 -148 -12 0 -15 -14 -15 -68 0 -65 -1 -69 -22 -68
-20 1 -23 -5 -26 -41 -2 -32 -7 -41 -17 -36 -9 3 -18 -4 -25 -21 -5 -14 -16
-26 -25 -26 -11 0 -15 -11 -15 -39 0 -33 -4 -40 -22 -43 -18 -2 -23 -10 -25
-33 0 -16 -2 -36 -2 -42 -1 -7 -8 -13 -16 -13 -8 0 -15 -7 -15 -15 0 -9 -8
-18 -17 -22 -10 -3 -24 -11 -31 -16 -18 -14 3 -36 28 -30 28 7 25 -13 -5 -39
-14 -12 -25 -32 -24 -43 3 -37 -1 -45 -21 -45 -15 0 -20 -7 -20 -25 0 -20 -5
-24 -22 -22 -14 1 -22 -3 -20 -11 1 -7 -9 -17 -23 -22 -18 -7 -25 -16 -24 -32
4 -50 0 -57 -38 -60 -42 -3 -56 -34 -15 -32 17 0 22 -5 22 -23 0 -19 -5 -23
-32 -24 -18 -1 -39 -1 -45 0 -9 1 -13 -12 -13 -39 0 -34 -4 -42 -26 -50 -21
-8 -25 -15 -22 -42 2 -26 0 -32 -14 -30 -13 2 -18 -8 -23 -43 -5 -27 -12 -45
-20 -45 -8 0 -15 -10 -17 -22 -2 -15 -11 -24 -27 -26 -13 -2 -26 -12 -28 -23
-3 -10 -10 -19 -17 -19 -20 -1 -64 -54 -74 -90 -6 -19 -11 -27 -11 -17 -3 46
-61 -17 -61 -67 0 -24 -5 -36 -14 -36 -7 0 -16 -9 -19 -19 -4 -15 -15 -20 -48
-23 -43 -3 -44 -4 -47 -40 -3 -30 -7 -38 -23 -38 -14 0 -19 -7 -19 -25 0 -23
-4 -25 -41 -25 -32 0 -42 -4 -46 -19 -3 -11 -13 -21 -24 -24 -10 -3 -19 -12
-19 -21 0 -12 -10 -16 -40 -16 -35 0 -39 -3 -37 -22 2 -20 -3 -23 -40 -26 -29
-2 -43 -8 -43 -17 0 -9 -14 -15 -37 -17 -28 -2 -41 -9 -48 -25 -6 -15 -21 -23
-50 -27 -22 -3 -49 -7 -60 -9 -12 -2 -23 -16 -29 -35 -9 -32 -9 -32 -20 -10
-8 16 -21 23 -41 24 -17 1 -36 2 -42 3 -7 0 -13 14 -13 31 0 17 5 30 13 30 19
0 -15 20 -35 20 -13 0 -18 -8 -18 -31 0 -30 -1 -31 -35 -25 -20 4 -44 2 -55
-4 -14 -7 -26 -8 -33 -2 -16 13 -120 9 -124 -4 -2 -6 10 -14 27 -17 16 -4 30
-11 30 -17 0 -14 -31 -9 -48 8 -8 7 -17 10 -21 8 -4 -3 -19 -7 -34 -10 -21 -4
-25 -1 -24 15 2 23 17 26 17 2 0 -14 2 -14 21 3 l21 19 -24 6 c-12 3 -29 1
-36 -6 -16 -14 -72 -7 -72 10 0 7 -13 15 -29 18 -16 3 -36 14 -46 23 -10 10
-25 19 -34 20 -39 5 -65 14 -71 25 -4 6 -16 9 -26 7 -11 -3 -36 4 -56 14 -21
10 -44 18 -53 18 -8 0 -15 4 -15 8 0 4 -11 9 -25 10 -14 1 -42 10 -63 21 -20
10 -68 26 -107 35 -129 32 -190 45 -193 42 -1 -2 4 -32 12 -67 9 -35 27 -114
42 -176 14 -62 31 -117 38 -122 6 -5 47 -24 90 -41 274 -110 423 -202 696
-431 155 -130 212 -184 239 -229 26 -44 26 -53 1 -45 -11 4 -20 2 -20 -4 0 -6
-6 -11 -13 -11 -23 0 -47 -34 -40 -58 4 -19 2 -21 -13 -16 -11 4 -28 14 -38
23 -40 34 -2 -16 74 -95 142 -150 340 -405 417 -539 72 -124 184 -355 178
-365 -3 -5 -2 -10 3 -10 15 0 65 -126 57 -141 -5 -7 -4 -10 2 -6 6 4 16 -12
23 -36 7 -23 19 -59 26 -80 16 -44 18 -60 4 -52 -5 3 -7 0 -4 -8 3 -8 1 -18
-5 -22 -7 -4 -11 5 -11 22 0 16 -6 35 -12 42 -10 11 -10 14 0 18 20 7 14 22
-7 18 -13 -2 -18 1 -15 9 3 7 -2 19 -10 26 -9 7 -13 17 -10 22 4 6 -2 8 -15 3
-16 -5 -23 -1 -30 17 -6 13 -10 17 -10 11 -1 -7 -7 -13 -15 -13 -16 0 -32 -72
-21 -91 6 -8 2 -8 -12 -1 -15 9 -20 8 -20 -4 0 -7 4 -14 8 -14 5 0 6 -6 3 -13
-6 -15 13 -69 27 -77 5 -4 10 -18 11 -33 1 -15 8 -27 16 -27 7 0 11 -4 7 -9
-3 -5 4 -12 15 -16 21 -7 29 -45 9 -45 -6 0 -3 -7 5 -16 9 -8 14 -19 11 -24
-3 -5 -1 -11 5 -15 6 -4 7 -11 4 -17 -18 -29 -21 -78 -6 -99 11 -15 11 -20 2
-14 -9 5 -11 4 -6 -4 4 -6 9 -50 10 -97 2 -49 0 -80 -5 -72 -7 10 -9 8 -10 -7
0 -11 -3 -14 -6 -7 -3 7 0 26 5 42 7 18 7 32 1 35 -5 4 -9 -5 -9 -19 0 -24 -3
-26 -47 -26 -27 -1 -136 -5 -243 -10 -107 -5 -196 -7 -199 -5 -2 3 2 11 9 20
10 12 37 15 134 15 109 0 275 19 321 36 13 5 15 14 10 43 -4 20 -8 37 -8 38
-1 1 -76 -10 -167 -24 -125 -19 -185 -23 -246 -18 l-82 6 -81 -56 c-134 -91
-191 -113 -191 -73 0 14 111 96 196 146 48 28 54 29 150 25 54 -3 117 -1 138
4 l40 9 -1 64 c-1 50 0 58 7 35 4 -16 8 -44 9 -62 0 -17 5 -35 11 -38 5 -3 49
2 96 11 l86 17 -6 56 c-3 31 -10 76 -16 101 -41 194 -54 245 -86 334 -40 113
-126 298 -169 366 -46 70 -55 91 -48 104 3 6 3 8 -2 4 -4 -4 -14 -3 -22 3 -16
14 -18 33 -1 23 7 -5 8 -3 4 5 -5 7 -10 10 -13 7 -3 -3 -39 41 -81 97 -276
371 -605 651 -997 850 -402 204 -948 317 -1379 287 -698 -49 -1289 -319 -1751
-801 -377 -393 -606 -876 -666 -1409 -24 -212 1 -548 56 -759 9 -35 14 -66 11
-69 -3 -3 -6 2 -6 11 0 10 -8 17 -21 17 -11 0 -18 3 -16 8 7 11 -11 52 -23 52
-14 0 -13 -27 2 -32 6 -2 9 -12 5 -21 -4 -10 -12 -14 -22 -11 -11 5 -15 -1
-15 -20 0 -14 -4 -26 -10 -26 -5 0 -7 -6 -4 -14 3 -7 -3 -17 -13 -20 -10 -4
-19 -2 -21 3 -2 6 -10 11 -17 11 -7 0 -16 6 -18 13 -4 9 -6 9 -6 -1 -1 -7 8
-20 18 -29 19 -16 18 -48 -2 -36 -7 4 -8 -6 -4 -30 4 -21 10 -52 13 -71 5 -25
2 -35 -10 -39 -9 -4 -16 -2 -16 3 0 6 -5 10 -11 10 -8 0 -8 -5 1 -15 8 -9 10
-28 6 -50 -5 -24 0 -57 15 -102 11 -38 23 -79 24 -93 2 -13 9 -26 14 -28 6 -2
9 -7 6 -12 -3 -5 2 -16 11 -24 21 -22 6 -20 -68 6 -53 19 -85 22 -198 23 -128
0 -135 -1 -133 -20 1 -10 -3 -27 -8 -36 -5 -11 -5 -20 0 -24 5 -3 9 -19 9 -37
-1 -19 6 -36 16 -44 10 -7 13 -15 7 -18 -7 -4 -7 -15 -1 -31 5 -14 7 -32 3
-41 -3 -9 -1 -19 5 -23 6 -4 13 -17 15 -29 2 -12 6 -25 10 -28 4 -4 7 -16 7
-26 0 -10 7 -30 16 -43 15 -23 15 -25 0 -31 -16 -6 -16 -8 0 -25 11 -12 17
-34 16 -59 -1 -30 2 -40 13 -40 8 0 15 -8 15 -18 0 -10 3 -22 7 -26 4 -4 6
-25 4 -46 -2 -30 1 -40 12 -40 9 0 17 -14 22 -36 3 -20 15 -46 26 -57 10 -11
19 -29 19 -39 0 -10 7 -21 15 -24 8 -4 13 -10 10 -14 -3 -4 2 -13 10 -20 9 -7
13 -23 11 -36 -4 -18 0 -24 13 -24 13 0 20 -10 24 -34 6 -37 44 -96 61 -96 6
0 12 -13 12 -30 2 -47 12 -63 34 -57 16 4 20 0 20 -21 0 -21 -2 -24 -10 -12
-8 12 -10 11 -10 -6 0 -12 7 -27 15 -34 8 -7 15 -21 15 -31 0 -13 5 -17 18
-12 14 6 15 4 4 -9 -7 -9 -11 -38 -10 -71 2 -52 4 -56 25 -55 20 2 23 8 24 48
1 25 4 36 6 25 3 -11 14 -27 24 -36 20 -18 25 -39 9 -39 -5 0 -10 -8 -10 -19
0 -14 6 -17 25 -14 19 4 27 0 37 -23 7 -16 21 -38 30 -48 22 -24 22 -29 2 -85
-15 -44 -13 -51 18 -63 3 -2 9 -19 13 -40 6 -31 4 -37 -14 -43 -12 -3 -21 -13
-21 -21 0 -8 -9 -14 -20 -14 -15 0 -20 -7 -20 -28 0 -15 -5 -33 -11 -39 -8 -8
-8 -13 0 -17 6 -4 11 -34 11 -66 0 -53 -2 -59 -22 -62 -19 -2 -24 -10 -26 -46
-2 -29 -8 -42 -18 -42 -8 0 -19 -12 -25 -27 -8 -22 -12 -24 -19 -13 -7 10 -10
11 -10 3 0 -7 -7 -13 -15 -13 -8 0 -15 5 -15 11 0 5 -5 7 -11 3 -6 -3 -9 -15
-6 -25 3 -11 1 -17 -4 -13 -5 3 -9 -6 -9 -20 0 -21 -5 -26 -24 -26 -18 0 -26
-7 -29 -22 l-4 -23 -2 23 c-2 42 -21 22 -21 -23 l0 -45 -40 0 -40 0 0 -40 c0
-33 -3 -40 -19 -40 -11 0 -22 -4 -25 -9 -3 -5 -15 -7 -26 -4 -18 5 -20 0 -20
-35 0 -47 -14 -61 -39 -38 -13 12 -20 13 -29 4 -15 -15 -16 -58 -2 -58 6 0 10
-7 10 -16 0 -8 -5 -12 -10 -9 -6 4 -10 -12 -10 -39 0 -40 -3 -46 -21 -46 -17
0 -20 -5 -17 -24 4 -18 0 -26 -14 -29 -10 -3 -18 -1 -18 5 0 5 -5 6 -11 2 -7
-4 -8 -22 -4 -51 6 -42 5 -44 -14 -38 -18 5 -21 2 -21 -23 0 -25 -3 -29 -21
-25 -15 4 -22 0 -26 -15 -3 -12 -14 -24 -24 -27 -10 -4 -19 -13 -19 -21 0 -10
-13 -14 -46 -14 -29 0 -51 -6 -62 -17 -17 -17 -18 -20 -21 -48 -1 -9 -16 -17
-41 -21 -39 -6 -40 -8 -40 -45 l0 -39 -45 0 c-43 0 -45 -1 -45 -29 0 -32 -30
-61 -63 -61 -14 0 -18 -5 -14 -20 3 -11 1 -20 -4 -20 -5 0 -9 -12 -9 -27 0
-19 -3 -24 -9 -15 -5 9 -17 11 -34 6 -23 -5 -27 -11 -27 -45 0 -32 -4 -39 -19
-39 -13 0 -21 -8 -23 -22 -2 -15 -11 -24 -25 -26 -13 -2 -23 -8 -23 -13 0 -6
-7 -17 -15 -25 -8 -8 -12 -21 -9 -29 5 -11 -1 -15 -21 -15 -18 0 -29 -6 -32
-20 -4 -16 -14 -20 -49 -20 l-44 0 0 -49 c0 -40 -3 -49 -18 -47 -13 1 -18 -9
-22 -39 -3 -27 -10 -40 -20 -40 -12 0 -16 -16 -18 -77 -3 -76 -3 -77 -33 -83
-17 -4 -55 -5 -85 -3 l-54 3 -4 -159 c-3 -92 -9 -163 -15 -169 -8 -8 -11 -4
-12 13 -1 25 -1 25 -12 -2 -6 -16 -17 -28 -25 -28 -9 0 -13 -8 -10 -22 4 -22
1 -23 -44 -20 -46 4 -48 3 -48 -22 0 -20 -5 -26 -17 -24 -10 2 -17 -3 -15 -10
1 -7 -9 -17 -23 -22 -14 -5 -28 -17 -31 -25 -4 -8 -12 -15 -20 -15 -7 0 -16
-11 -20 -25 -9 -34 -44 -34 -44 0 0 19 -5 25 -21 25 -15 0 -19 -4 -15 -16 3
-9 6 -20 6 -25 0 -5 7 -9 15 -9 9 0 15 -9 15 -23 0 -22 -4 -24 -40 -20 l-40 4
0 -41 c0 -31 -4 -40 -17 -40 -19 0 -43 -41 -43 -72 0 -17 193 -18 5050 -18
l5050 0 0 5400 0 5400 -590 0 c-404 -1 -591 -4 -596 -11z m-217 -361 c-3 -7
-5 -2 -5 12 0 14 2 19 5 13 2 -7 2 -19 0 -25z m-87 -98 c0 -5 -4 -10 -10 -10
-5 0 -10 -7 -10 -17 0 -9 -3 -14 -6 -10 -8 8 5 47 17 47 5 0 9 -4 9 -10z m-72
-17 c2 -8 -5 -13 -17 -13 -12 0 -21 6 -21 16 0 18 31 15 38 -3z m72 -78 c0
-14 -4 -25 -10 -25 -11 0 -14 33 -3 43 11 11 13 8 13 -18z m-310 -505 c0 -11
-4 -20 -10 -20 -5 0 -10 9 -10 20 0 11 5 20 10 20 6 0 10 -9 10 -20z m-220
-370 c0 -5 -4 -10 -10 -10 -5 0 -10 5 -10 10 0 6 5 10 10 10 6 0 10 -4 10 -10z
m-840 -865 c0 -8 -2 -15 -4 -15 -2 0 -6 7 -10 15 -3 8 -1 15 4 15 6 0 10 -7
10 -15z m-610 -49 c0 -3 -4 -8 -10 -11 -5 -3 -10 -1 -10 4 0 6 5 11 10 11 6 0
10 -2 10 -4z m90 -6 c0 -5 -2 -10 -4 -10 -3 0 -8 5 -11 10 -3 6 -1 10 4 10 6
0 11 -4 11 -10z m-40 -10 c0 -5 -5 -10 -11 -10 -5 0 -7 5 -4 10 3 6 8 10 11
10 2 0 4 -4 4 -10z m310 0 c0 -5 -11 -10 -25 -10 -14 0 -25 5 -25 10 0 6 11
10 25 10 14 0 25 -4 25 -10z m35 -40 c3 -5 1 -10 -4 -10 -6 0 -11 5 -11 10 0
6 2 10 4 10 3 0 8 -4 11 -10z m-2465 -384 c0 -8 -5 -18 -10 -21 -13 -8 -42 14
-34 26 9 15 44 10 44 -5z m85 -16 c0 -18 -6 -26 -22 -28 -20 -3 -23 1 -23 28
0 27 3 31 23 28 16 -2 22 -10 22 -28z m-167 -12 c4 -32 -22 -40 -32 -10 -3 9
-9 23 -12 30 -4 10 1 13 17 10 18 -2 25 -10 27 -30z m257 7 c0 -13 -8 -21 -22
-23 -19 -3 -23 1 -23 23 0 22 4 26 23 23 14 -2 22 -10 22 -23z m85 5 c0 -15
-7 -20 -25 -20 -27 0 -28 1 -19 24 9 24 44 20 44 -4z m-420 -15 c0 -29 -34
-36 -44 -9 -10 27 -7 34 19 34 20 0 25 -5 25 -25z m500 5 c0 -13 -7 -20 -20
-20 -13 0 -20 7 -20 20 0 13 7 20 20 20 13 0 20 -7 20 -20z m78 -8 c3 -17 -2
-22 -17 -22 -16 0 -21 6 -21 26 0 33 33 30 38 -4z m-668 -7 c0 -30 -11 -32
-33 -7 -19 21 -13 32 15 32 13 0 18 -7 18 -25z m-76 -7 c8 -33 -10 -45 -34
-23 -30 27 -26 35 21 44 4 0 9 -9 13 -21z m-84 -28 c0 -35 -10 -38 -34 -11
-21 23 -14 41 15 41 14 0 19 -7 19 -30z m900 18 c0 -4 -7 -8 -15 -8 -8 0 -15
4 -15 8 0 5 7 9 15 9 8 0 15 -4 15 -9z m140 -8 c0 -21 -24 -28 -35 -10 -8 14
3 30 21 30 8 0 14 -9 14 -20z m-1122 -27 c5 -33 -31 -30 -46 3 -12 24 -11 25
15 22 20 -2 29 -9 31 -25z m1205 6 c4 -15 1 -19 -11 -17 -21 4 -29 38 -9 38 8
0 17 -9 20 -21z m77 -31 c0 -21 -11 -23 -28 -6 -8 8 -8 17 0 31 8 16 12 17 19
6 5 -8 9 -22 9 -31z m-1366 6 c13 -35 -26 -48 -44 -15 -14 28 -13 31 14 31 13
0 27 -7 30 -16z m1445 -3 c17 -11 7 -45 -12 -39 -13 5 -23 48 -10 48 4 0 14
-4 22 -9z m-1533 -16 c4 -8 0 -22 -7 -31 -12 -14 -14 -14 -26 2 -7 10 -13 24
-13 31 0 18 39 16 46 -2z m1618 -11 c9 -3 16 -15 16 -26 0 -28 -34 -19 -38 10
-4 24 -2 25 22 16z m-1696 -26 c2 -12 -3 -18 -16 -18 -22 0 -46 23 -35 34 13
13 48 1 51 -16z m-78 -39 c0 -18 -23 -20 -41 -3 -19 18 -20 19 -2 31 15 12 20
11 30 -4 7 -9 13 -20 13 -24z m1868 29 c17 -17 15 -25 -7 -31 -20 -5 -36 17
-25 34 7 12 18 11 32 -3z m90 -40 c3 -16 -24 -32 -39 -22 -13 8 10 46 24 41 7
-2 13 -11 15 -19z m-2040 -11 c4 -22 -24 -33 -43 -17 -20 16 -19 28 3 33 26 7
37 2 40 -16z m2142 -40 c0 -5 -10 -5 -21 -2 -13 5 -25 2 -30 -6 -4 -7 -10 -11
-13 -8 -3 3 1 15 10 27 13 18 18 20 34 9 11 -6 20 -16 20 -20z m-2223 7 c9
-25 -10 -36 -35 -18 -12 8 -22 19 -22 25 0 16 50 10 57 -7z m1113 -14 c14 -11
22 -20 18 -21 -5 -1 -12 -3 -18 -4 -5 -1 -19 -3 -30 -4 -11 0 -20 -7 -20 -13
0 -7 -11 -35 -25 -63 -14 -27 -34 -83 -46 -122 -12 -40 -26 -73 -31 -73 -6 0
-8 10 -5 23 3 12 15 66 26 120 24 115 33 135 66 143 15 4 22 11 18 20 -7 20
18 17 47 -6z m-836 -20 c-44 -15 -97 -35 -117 -44 -21 -9 -52 -23 -71 -31 -19
-8 -41 -15 -49 -15 -8 0 -20 -7 -27 -15 -7 -8 -16 -15 -21 -15 -4 0 3 11 17
25 14 14 28 24 32 21 14 -8 53 14 46 25 -4 7 -3 9 3 6 11 -7 63 14 63 26 0 4
13 7 29 7 16 0 31 4 33 9 2 6 26 13 53 16 28 4 52 9 54 11 2 2 11 4 20 3 9 0
-20 -13 -65 -29z m-354 -11 c0 -23 -32 -26 -49 -5 -10 11 -8 16 5 24 24 13 44
4 44 -19z m2389 7 c14 -17 5 -24 -32 -24 -27 0 -27 1 -11 19 20 23 28 23 43 5z
m-2471 -38 c16 -16 15 -38 -1 -38 -18 0 -49 34 -40 43 10 11 28 8 41 -5z
m2567 -28 c-11 -18 -41 -29 -55 -20 -12 7 -11 12 4 29 14 16 23 18 38 10 10
-5 16 -14 13 -19z m-2647 -12 c16 -16 15 -38 -1 -38 -8 0 -22 9 -31 19 -13 15
-14 20 -4 24 20 8 23 8 36 -5z m902 -8 c0 -5 -7 -10 -15 -10 -8 0 -15 5 -15
10 0 6 7 10 15 10 8 0 15 -4 15 -10z m-40 -9 c0 -11 -48 -24 -60 -16 -21 13
-8 25 25 25 19 0 35 -4 35 -9z m1869 -21 c8 -5 5 -12 -12 -23 -36 -23 -56 -7
-33 28 13 20 20 24 26 15 4 -7 13 -16 19 -20z m-2791 -29 c4 -24 3 -24 -19 -9
-33 21 -37 40 -8 36 17 -2 25 -11 27 -27z m272 23 c0 -1 -26 -17 -57 -34 -72
-40 -194 -122 -250 -167 -57 -46 -55 -32 3 22 33 30 42 44 33 48 -8 4 -6 5 6
4 11 -1 20 4 20 12 0 8 6 16 13 19 6 2 12 -1 12 -7 0 -17 18 -13 40 9 11 11
20 18 20 15 0 -7 24 13 48 38 9 9 22 17 29 17 7 0 13 4 13 9 0 5 9 7 20 4 11
-3 20 -1 20 4 0 5 7 10 15 10 8 0 15 -1 15 -3z m557 0 c-3 -3 -12 -4 -19 -1
-8 3 -5 6 6 6 11 1 17 -2 13 -5z m-122 -26 c6 -4 2 -8 -7 -8 -10 0 -18 7 -18
17 0 9 3 12 8 7 4 -5 12 -12 17 -16z m70 12 c-11 -5 -29 -8 -40 -8 -16 0 -15
2 5 8 34 11 60 11 35 0z m-841 -26 c18 -7 22 -34 5 -34 -19 0 -50 21 -44 31 7
11 17 11 39 3z m2096 -34 c0 -32 -14 -40 -24 -14 -10 27 -7 44 9 44 10 0 15
-10 15 -30z m834 15 c-4 -8 -1 -15 6 -15 10 0 10 -3 0 -15 -15 -18 -36 -19
-46 -3 -4 6 3 19 16 30 27 22 31 22 24 3z m-2266 -15 c-11 -17 -10 -22 10 -36
17 -11 20 -20 13 -27 -7 -7 -14 -7 -24 1 -8 7 -28 14 -46 16 -17 2 -35 6 -38
10 -11 10 55 54 85 55 10 1 10 -3 0 -19z m-711 -25 c3 -9 3 -18 0 -22 -11 -10
-57 7 -57 22 0 20 49 20 57 0z m2483 -25 c0 -5 -4 -10 -10 -10 -5 0 -10 5 -10
10 0 6 5 10 10 10 6 0 10 -4 10 -10z m569 -6 c-10 -13 -10 -17 1 -24 8 -5 11
-12 7 -16 -4 -4 -15 0 -25 10 -16 16 -16 18 2 32 26 18 32 18 15 -2z m43 1 c0
-5 -5 -11 -10 -13 -5 -1 -9 4 -9 13 0 9 4 14 9 13 5 -2 10 -8 10 -13z m-3162
-21 c0 -17 -36 -19 -46 -3 -8 14 14 29 33 22 7 -3 13 -11 13 -19z m655 16 c-3
-5 -12 -10 -18 -10 -7 0 -6 4 3 10 19 12 23 12 15 0z m755 -24 c0 -13 -7 -29
-15 -36 -23 -19 -18 -30 13 -30 l27 0 -4 -317 -3 -316 77 6 c43 4 93 7 112 7
l33 0 0 293 c0 215 3 296 12 305 8 8 57 12 156 12 l144 0 -6 -327 c-4 -228 -3
-321 4 -304 10 24 11 24 128 17 145 -8 222 -26 328 -75 136 -64 221 -160 269
-304 51 -153 41 -360 -22 -486 -41 -80 -136 -171 -230 -218 -111 -56 -105 -68
37 -68 105 0 120 -2 175 -28 125 -59 218 -154 256 -262 11 -31 27 -124 36
-206 14 -129 15 -163 4 -242 -24 -167 -82 -280 -208 -404 -48 -48 -87 -74
-165 -112 -125 -61 -208 -84 -392 -111 -78 -11 -160 -26 -183 -32 l-43 -11 -2
-241 -3 -241 -135 0 c-78 0 -138 -4 -143 -10 -5 -5 -7 100 -5 235 l3 245 -117
3 -118 3 -2 -238 -3 -238 -128 -3 c-110 -2 -129 -5 -135 -20 -4 -9 -9 96 -12
233 l-5 250 -350 3 c-205 1 -361 -2 -377 -7 -18 -6 -28 -6 -28 -1 0 19 103
355 116 382 17 32 20 33 179 48 165 15 165 15 165 139 0 54 3 126 6 160 l7 61
-222 0 c-207 0 -222 1 -219 18 3 15 22 17 218 19 l215 2 0 26 0 26 -222 -1
c-176 0 -223 2 -223 12 1 33 15 35 230 34 l215 -1 -1 100 c0 55 -1 141 -2 191
l-2 92 -45 -6 c-41 -4 -45 -3 -45 17 0 18 6 21 45 21 l45 0 0 138 0 138 -252
-3 c-139 -2 -299 -4 -356 -6 -103 -3 -103 -2 -100 21 l3 23 330 -1 c182 -1
341 -2 355 -3 l25 -2 3 237 c2 130 -1 252 -5 270 -16 63 -98 85 -349 95 -159
6 -161 6 -167 -15 -3 -16 -13 -22 -31 -22 -38 0 -35 41 4 72 29 22 30 28 45
158 9 74 21 140 26 145 6 6 81 11 172 13 174 3 190 6 247 59 19 18 39 33 43
33 4 0 -8 -14 -28 -31 -63 -56 -55 -59 135 -59 l170 0 0 115 c0 63 -1 115 -3
115 -13 0 -152 -52 -163 -61 -10 -8 -19 -7 -35 4 -21 15 -20 16 37 44 65 31
62 30 122 32 l42 1 0 169 c0 188 -3 181 73 181 23 0 72 3 110 7 l67 6 0 37 c0
20 3 40 7 43 14 15 33 6 33 -17z m-1470 -21 c13 -16 6 -35 -15 -35 -18 0 -28
17 -21 35 7 19 20 19 36 0z m3320 -14 c0 -14 -20 -24 -47 -26 -26 -1 -29 5
-11 23 14 14 58 16 58 3z m-3376 -27 c20 -8 21 -33 1 -40 -23 -9 -48 15 -34
32 13 16 12 16 33 8z m3346 -14 c0 -5 -4 -10 -10 -10 -5 0 -10 5 -10 10 0 6 5
10 10 10 6 0 10 -4 10 -10z m-3172 -34 c-7 -8 -15 -12 -17 -11 -5 6 10 25 20
25 5 0 4 -6 -3 -14z m3292 1 c0 -7 -8 -17 -18 -24 -17 -10 -18 -8 -14 13 4 24
32 34 32 11z m-2679 -85 c9 -16 21 -22 36 -19 12 2 20 0 17 -4 -3 -5 -12 -9
-19 -9 -17 0 -38 -36 -30 -50 3 -6 -1 -7 -9 -4 -9 3 -37 -6 -63 -21 l-48 -26
35 30 c19 17 38 31 43 31 15 0 6 34 -18 66 -31 41 -31 48 3 72 l27 21 6 -32
c3 -18 12 -42 20 -55z m306 82 c-3 -3 -12 -4 -19 -1 -8 3 -5 6 6 6 11 1 17 -2
13 -5z m2321 -19 c-10 -23 -28 -34 -28 -18 0 7 31 43 36 43 2 0 -2 -11 -8 -25z
m-3464 9 c24 -9 19 -24 -8 -24 -26 0 -40 12 -29 24 8 8 17 8 37 0z m1036 -22
c0 -10 -50 -35 -57 -28 -3 2 8 11 24 20 34 18 33 18 33 8z m-1070 -27 c10 -12
9 -16 -3 -21 -19 -7 -60 14 -52 27 9 14 41 11 55 -6z m2775 -5 c23 -26 14 -35
-17 -18 -12 7 -25 14 -27 15 -5 3 10 23 18 23 4 0 16 -9 26 -20z m-2585 6 c0
-2 -8 -10 -17 -17 -16 -13 -17 -12 -4 4 13 16 21 21 21 13z m3410 -16 c0 -7 7
-7 21 1 15 8 19 8 15 0 -11 -17 -65 -43 -77 -35 -7 4 -4 13 7 25 19 21 34 25
34 9z m-3649 -36 c10 -13 10 -17 -2 -25 -17 -11 -21 -11 -38 0 -17 11 -7 41
12 41 8 0 20 -7 28 -16z m2368 0 c27 -6 31 -10 31 -40 0 -38 -23 -56 -58 -47
-18 4 -22 13 -22 49 0 47 1 47 49 38z m-1741 -30 c-2 -9 -13 -23 -25 -31 -21
-14 -23 -14 -30 2 -4 12 0 23 12 31 26 19 47 18 43 -2z m3098 -5 c8 -14 -4
-25 -41 -34 l-30 -7 24 26 c27 28 36 32 47 15z m-3781 -12 c12 -10 14 -16 7
-21 -15 -9 -54 12 -47 25 8 12 18 11 40 -4z m-16 -43 c8 -7 -12 -24 -29 -24
-22 0 -34 15 -25 30 6 9 41 5 54 -6z m3864 -9 c-3 -8 -10 -15 -16 -15 -6 0
-19 -7 -29 -17 -10 -9 -21 -13 -26 -8 -4 4 -1 10 7 13 7 2 22 15 34 28 21 24
40 24 30 -1z m-3394 -32 c-15 -18 -70 -79 -120 -133 -52 -57 -10 -1 59 78 35
39 66 72 69 72 3 0 -1 -8 -8 -17z m391 13 c0 -2 -7 -7 -16 -10 -8 -3 -12 -2
-9 4 6 10 25 14 25 6z m1680 -6 c8 -5 11 -10 5 -10 -5 0 -17 5 -25 10 -8 5
-10 10 -5 10 6 0 17 -5 25 -10z m-2601 -34 c18 -21 -11 -41 -38 -26 -12 6 -21
14 -21 19 0 23 41 29 59 7z m3983 -2 c-8 -15 -72 -49 -72 -39 0 4 70 53 78 54
2 1 -1 -6 -6 -15z m-4026 -65 c13 -22 -14 -33 -41 -15 -21 14 -24 20 -15 31
13 15 42 7 56 -16z m4074 -19 c-6 -11 -17 -20 -25 -20 -8 0 -15 9 -15 20 0 15
7 20 25 20 23 0 24 -2 15 -20z m-1552 -17 c3 -10 -13 -13 -57 -13 -67 0 -83
16 -23 23 55 6 75 3 80 -10z m-2575 -21 c10 -10 14 -22 10 -25 -9 -10 -45 -8
-62 2 -12 8 -12 12 -2 25 18 21 34 20 54 -2z m4191 -39 c-24 -17 -44 -17 -44
2 0 21 32 36 48 22 11 -9 11 -13 -4 -24z m-3714 13 c0 -2 -8 -10 -17 -17 -16
-13 -17 -12 -4 4 13 16 21 21 21 13z m337 -34 l31 -38 -57 -44 c-31 -23 -46
-32 -35 -19 12 13 24 37 28 52 4 15 11 25 15 22 5 -3 7 4 4 16 -3 11 -12 23
-19 26 -8 3 -14 9 -14 14 0 19 18 8 47 -29z m2243 2 c0 -8 -5 -12 -10 -9 -6 4
-8 11 -5 16 9 14 15 11 15 -7z m-1705 -4 c-3 -5 -12 -10 -18 -10 -7 0 -6 4 3
10 19 12 23 12 15 0z m2785 6 c0 -2 -7 -7 -16 -10 -8 -3 -12 -2 -9 4 6 10 25
14 25 6z m-4190 -16 c11 -6 17 -17 14 -25 -7 -17 -41 -20 -63 -6 -12 8 -12 12
-2 25 16 19 25 20 51 6z m4278 -46 c-16 -17 -32 -24 -42 -21 -24 9 -19 27 7
27 12 0 29 5 37 10 26 17 25 11 -2 -16z m-4324 -46 c-9 -31 -10 -31 -39 -24
-22 6 -24 9 -13 26 7 11 23 20 36 20 20 0 22 -4 16 -22z m468 -22 c4 -19 1
-22 -14 -18 -10 2 -18 6 -18 9 0 3 23 32 26 33 1 0 4 -11 6 -24z m3926 6 c9
-6 2 -14 -23 -27 -28 -16 -37 -17 -47 -7 -24 25 38 54 70 34z m-3883 -32 c3
-5 -1 -10 -10 -10 -9 0 -13 5 -10 10 3 6 8 10 10 10 2 0 7 -4 10 -10z m-550
-20 c9 -15 -14 -40 -36 -40 -24 0 -33 18 -19 35 14 17 46 20 55 5z m3729 -30
c14 -22 26 -43 26 -47 0 -4 -6 1 -13 12 -33 48 -49 75 -44 75 2 0 16 -18 31
-40z m766 6 c0 -17 -66 -50 -86 -42 -24 9 -16 21 29 38 55 20 57 21 57 4z
m-4536 -66 c14 -14 -4 -30 -35 -30 -30 0 -34 6 -23 34 6 17 38 14 58 -4z
m4574 -21 c-2 -6 -22 -17 -43 -25 -49 -17 -63 -18 -48 -3 30 30 99 51 91 28z
m-4608 -38 c0 -5 -9 -7 -20 -4 -11 3 -20 7 -20 9 0 2 9 4 20 4 11 0 20 -4 20
-9z m3884 -17 c3 -8 2 -12 -4 -9 -6 3 -10 10 -10 16 0 14 7 11 14 -7z m-3894
-21 c0 -36 -16 -48 -46 -35 -26 12 -26 13 -9 32 23 25 55 26 55 3z m4660 -1
c0 -10 -65 -42 -85 -42 -30 0 -14 27 23 37 49 14 62 15 62 5z m-730 -57 c0 -5
-5 -3 -10 5 -5 8 -10 20 -10 25 0 6 5 3 10 -5 5 -8 10 -19 10 -25z m-3960 -25
c0 -5 -11 -10 -24 -10 -14 0 -28 5 -31 10 -4 6 7 10 24 10 17 0 31 -4 31 -10z
m4004 -82 c28 -75 63 -193 40 -138 -11 26 -84 223 -84 227 0 17 14 -12 44 -89z
m711 72 c6 -9 -56 -40 -81 -40 -24 0 -15 16 19 33 38 19 54 21 62 7z m-4727
-25 c1 -1 0 -10 -4 -19 -8 -20 -23 -20 -49 0 -17 13 -18 16 -5 24 12 8 46 5
58 -5z m4762 -60 c-2 -7 -65 -33 -86 -35 -1 0 -4 7 -7 15 -4 10 6 17 36 23 48
11 59 10 57 -3z m-4799 -15 c5 0 9 -9 9 -20 0 -21 -24 -27 -49 -11 -19 12 -6
45 15 37 9 -3 20 -6 25 -6z m3787 -70 c13 -37 17 -62 11 -66 -6 -3 -4 -11 5
-17 22 -17 25 -61 4 -65 -11 -2 -20 8 -28 35 -7 21 -23 58 -35 83 -40 80 -41
90 -7 90 28 0 32 -5 50 -60z m-2644 -2 c-31 -59 -157 -261 -207 -333 -54 -76
-186 -232 -236 -279 -17 -17 -31 -34 -31 -38 0 -5 44 -7 98 -6 53 2 258 2 455
1 295 -3 357 -5 357 -17 0 -7 -14 -16 -31 -20 -17 -3 -242 -6 -500 -6 l-468 0
-15 -22 c-9 -12 -13 -24 -11 -26 3 -3 135 -4 295 -3 159 1 294 0 299 -3 5 -3
7 -15 4 -26 -5 -19 -14 -20 -302 -20 -163 0 -316 -5 -340 -11 -24 -5 -46 -7
-49 -4 -3 3 1 23 8 44 13 40 79 114 121 135 39 19 276 304 427 512 90 125 165
198 126 122z m3694 0 c2 -11 -10 -19 -42 -27 -57 -14 -66 -14 -66 2 0 12 76
46 95 42 6 -1 11 -9 13 -17z m130 -11 c-1 -2 4 -12 12 -23 14 -18 14 -18 -2
-5 -10 7 -18 20 -18 29 0 8 3 13 6 10 3 -4 4 -8 2 -11z m-4984 -19 c-9 -31 -9
-31 -39 -24 -16 4 -25 13 -25 26 0 16 7 20 36 20 32 0 35 -2 28 -22z m1237
-79 c-29 -62 -41 -103 -47 -157 l-7 -73 54 3 54 3 5 67 c3 37 11 73 18 80 9
10 12 -4 12 -70 l0 -82 40 0 40 0 0 66 c0 63 -1 65 -30 75 -80 29 16 51 125
30 43 -9 35 -17 -29 -30 -31 -7 -31 -7 -34 -74 l-3 -67 64 0 64 0 7 80 c4 44
11 80 16 80 14 0 22 -57 18 -130 l-3 -65 -216 -3 -216 -2 -6 95 c-4 56 -2 106
4 121 17 46 93 154 101 146 5 -5 -9 -46 -31 -93z m3950 -74 c12 -61 17 -114
13 -135 -5 -29 -7 -32 -14 -15 -10 26 -24 135 -21 159 2 10 -2 15 -7 12 -15
-9 -22 21 -12 50 15 38 12 50 -6 28 -15 -18 -15 -18 -4 3 5 12 10 26 9 30 -1
4 0 13 1 18 3 16 19 -42 41 -150z m-762 95 c0 -10 -3 -8 -9 5 -12 27 -12 43 0
25 5 -8 9 -22 9 -30z m-269 -85 c31 -97 42 -170 34 -222 -7 -45 -9 -38 -34
112 -15 88 -30 176 -33 195 -7 34 -7 34 3 5 6 -16 19 -57 30 -90z m730 86 c0
-10 -48 -28 -89 -33 -46 -6 -32 20 16 30 65 13 73 13 73 3z m-4900 -26 c0 -16
-12 -18 -47 -9 -31 8 -19 24 18 24 19 0 29 -5 29 -15z m-12 -67 c-7 -20 -68
-23 -68 -4 0 12 10 16 36 16 24 0 34 -4 32 -12z m3887 -45 c9 -32 18 -63 20
-70 2 -6 21 -14 42 -16 25 -3 19 -4 -16 -3 -61 1 -60 1 -75 99 -10 67 10 60
29 -10z m1035 38 c0 -11 -55 -31 -87 -31 -34 0 -24 23 13 31 45 10 74 10 74 0z
m-4932 -78 c-2 -13 -14 -19 -41 -21 -32 -3 -37 0 -37 17 0 18 6 21 41 21 33 0
40 -3 37 -17z m4916 -37 c-4 -10 -18 -16 -41 -16 -45 0 -39 23 8 30 41 7 41 7
33 -14z m325 -70 c-9 -8 -10 -7 -5 7 3 10 7 24 7 30 1 7 3 4 6 -7 3 -10 -1
-23 -8 -30z m-722 12 c-3 -8 -6 -5 -6 6 -1 11 2 17 5 13 3 -3 4 -12 1 -19z
m-4537 4 c0 -5 -13 -7 -30 -4 -17 2 -30 0 -30 -6 0 -6 15 -13 33 -15 31 -4 31
-4 -5 -5 -32 -2 -38 1 -38 18 0 16 7 20 35 20 19 0 35 -4 35 -8z m5277 -74
c-3 -7 -5 -2 -5 12 0 14 2 19 5 13 2 -7 2 -19 0 -25z m-1020 -10 c-3 -7 -5 -2
-5 12 0 14 2 19 5 13 2 -7 2 -19 0 -25z m-4261 -15 c-3 -8 -6 -19 -6 -24 0 -5
-9 -9 -20 -9 -11 0 -20 7 -20 15 0 8 -7 15 -15 15 -8 0 -15 3 -15 8 0 4 18 8
41 8 31 1 39 -2 35 -13z m5291 -45 c-2 -13 -4 -5 -4 17 -1 22 1 32 4 23 2 -10
2 -28 0 -40z m-5297 -67 c0 -13 -10 -20 -37 -24 -44 -7 -44 -7 -36 21 7 30 73
33 73 3z m1600 -1 c0 -20 -7 -20 -335 -20 -328 0 -335 0 -335 20 0 20 7 20
335 20 328 0 335 0 335 -20z m3150 -25 c74 -3 190 -2 258 2 67 5 122 7 122 5
0 -2 -6 -10 -14 -18 -12 -11 -60 -14 -253 -14 -261 0 -313 5 -313 27 0 12 8
14 33 9 17 -3 93 -8 167 -11z m-687 -7 c12 -6 38 -24 57 -39 l35 -28 477 -3
477 -3 6 -35 c6 -29 7 -93 2 -160 -1 -13 -60 -15 -462 -16 -411 0 -463 -2
-492 -17 -26 -14 -61 -17 -178 -17 -81 0 -145 4 -145 9 0 39 8 41 172 41 102
0 157 4 153 10 -4 6 158 11 467 12 l473 3 0 25 0 25 -475 -4 c-261 -2 -476 -7
-478 -12 -5 -13 -362 -12 -362 1 0 18 48 22 200 19 139 -4 149 -3 144 13 -5
17 22 18 483 15 l488 -2 3 29 4 28 -490 -3 -490 -4 -32 23 c-17 13 -58 28 -92
35 -35 6 -62 17 -66 25 -13 35 73 56 121 30z m-4063 -52 c0 -2 3 -11 6 -20 5
-13 -2 -16 -38 -16 -37 0 -44 3 -45 20 -2 17 4 20 38 20 21 0 39 -2 39 -4z
m215 -26 c3 -5 1 -10 -4 -10 -6 0 -11 5 -11 10 0 6 2 10 4 10 3 0 8 -4 11 -10z
m-203 -85 c5 -24 3 -25 -38 -25 -37 0 -44 3 -44 19 0 19 16 28 56 30 16 1 23
-6 26 -24z m1578 -9 c0 -17 -64 -26 -195 -26 -98 0 -103 1 -98 20 5 19 14 20
149 20 115 0 144 -3 144 -14z m-1560 -86 c0 -17 -7 -20 -45 -20 -51 0 -65 26
-17 33 56 8 62 7 62 -13z m1250 -4 c0 -8 -3 -17 -7 -19 -5 -3 -151 -8 -325
-12 -295 -7 -318 -6 -324 10 -4 10 -1 21 7 26 8 5 157 9 332 9 269 0 317 -2
317 -14z m300 -16 c0 -19 -7 -20 -130 -20 -71 0 -130 4 -130 8 0 25 30 32 142
32 111 0 118 -1 118 -20z m86 3 c-16 -54 -17 -74 -6 -88 6 -8 9 -19 5 -25 -4
-7 -151 -10 -446 -10 l-440 0 3 23 3 22 424 -4 424 -3 -6 44 c-7 50 -3 58 25
58 14 0 18 -5 14 -17z m3443 -88 c0 -16 -3 -24 -6 -17 -4 9 -108 12 -473 12
-459 0 -513 4 -469 31 8 4 224 7 481 6 l468 -2 -1 -30z m-5071 8 c-4 -24 -88
-32 -88 -9 0 18 15 24 58 25 27 1 33 -3 30 -16z m5064 -90 c-12 -119 -28 -188
-43 -185 -8 2 -218 4 -467 3 l-452 0 11 21 11 21 453 -6 453 -6 5 25 c2 13 0
27 -4 30 -5 3 -207 5 -449 5 l-440 -1 0 21 0 22 446 -7 c473 -8 463 -9 464 37
0 16 -29 17 -465 17 -436 0 -465 1 -465 18 0 16 28 17 470 14 320 -2 470 1
470 8 0 5 2 10 4 10 2 0 1 -21 -2 -47z m-5042 -3 c0 -12 -7 -20 -17 -20 -10 0
-28 -3 -40 -6 -18 -5 -23 -2 -23 14 0 16 8 22 33 25 17 2 35 5 40 5 4 1 7 -7
7 -18z m1367 -10 c216 0 223 -1 223 -20 0 -20 -7 -20 -329 -20 -219 0 -332 4
-336 10 -4 6 -4 18 -1 27 6 14 21 15 113 10 58 -4 207 -7 330 -7z m-1344 -74
c8 -21 -2 -26 -30 -13 -23 10 -23 12 -6 18 27 11 30 10 36 -5z m-229 -14 c3 7
5 4 3 -6 -3 -27 -23 -31 -30 -6 -4 17 -3 19 8 10 10 -8 15 -7 19 2z m43 -74
c-3 -8 -6 -5 -6 6 -1 11 2 17 5 13 3 -3 4 -12 1 -19z m203 -2 c0 -12 -15 -14
-52 -7 -5 0 -8 6 -8 11 0 6 14 10 30 10 19 0 30 -5 30 -14z m4959 -70 c-6 -21
-8 -48 -5 -59 3 -11 -4 -38 -15 -60 -11 -21 -16 -36 -10 -32 6 3 11 1 11 -4 0
-6 -4 -11 -10 -11 -5 0 -8 -15 -6 -32 3 -18 5 -37 5 -42 1 -5 4 -7 7 -3 8 7
34 -17 34 -32 0 -6 5 -11 10 -11 6 0 10 -7 10 -15 0 -10 10 -15 30 -15 17 0
30 -5 30 -12 0 -6 7 -3 16 8 18 22 19 27 -22 -83 -164 -443 -684 -1029 -1229
-1386 -321 -210 -689 -344 -1080 -393 -225 -28 -578 -20 -769 18 -54 10 -57
12 -36 23 13 7 19 14 14 16 -18 8 -56 106 -49 128 3 12 3 21 -2 20 -18 -3 -34
2 -29 9 3 5 -45 23 -105 40 -339 99 -701 282 -929 471 -99 81 -251 224 -262
245 -6 12 30 -17 81 -64 121 -112 178 -158 281 -229 505 -348 1078 -514 1630
-473 369 28 672 111 983 269 335 171 724 502 963 819 81 108 212 320 258 417
43 93 116 260 116 267 0 11 -684 19 -758 9 -40 -6 -121 -32 -206 -68 -228 -94
-284 -91 -82 4 223 107 182 100 652 97 l410 -3 11 24 12 25 -125 7 c-68 4
-263 5 -432 3 -344 -5 -319 -1 -526 -97 -49 -22 -92 -41 -96 -41 -5 0 -6 9 -3
20 5 20 72 56 218 116 l70 29 449 0 449 0 9 24 c4 13 6 26 3 29 -3 3 -199 8
-435 10 -306 3 -442 1 -475 -7 -26 -6 -94 -35 -151 -63 -58 -28 -108 -47 -112
-44 -15 16 20 44 112 91 l98 50 485 0 c458 0 485 1 495 18 15 28 19 15 7 -27z
m-4931 -18 c3 -15 -4 -18 -32 -18 -30 0 -36 4 -36 21 0 17 5 20 32 17 22 -2
34 -9 36 -20z m1560 -55 c-3 -16 -19 -18 -149 -21 -141 -2 -199 6 -199 28 0 6
62 10 176 10 162 0 175 -1 172 -17z m-1528 -33 c0 -17 -7 -20 -47 -20 -35 0
-44 3 -33 10 10 6 11 10 3 10 -7 0 -13 5 -13 10 0 6 20 10 45 10 38 0 45 -3
45 -20z m35 -95 c0 -29 -28 -29 -42 0 -11 25 -10 26 15 23 19 -2 27 -9 27 -23z
m4623 -60 c15 -3 33 -15 40 -26 13 -20 12 -21 -15 -15 -15 3 -46 8 -68 12 -51
8 -55 11 -48 30 4 11 14 13 34 10 16 -4 42 -8 57 -11z m-4580 -26 c2 -11 -8
-20 -29 -28 -44 -15 -49 -14 -49 9 0 37 71 54 78 19z m4377 -162 c-37 -72 -76
-143 -87 -157 -10 -14 -42 -61 -69 -104 -71 -111 -173 -232 -304 -361 -366
-360 -753 -566 -1244 -662 -126 -25 -155 -27 -411 -27 -242 -1 -290 2 -404 22
-215 37 -352 78 -552 163 -149 63 -408 218 -494 297 -38 35 -41 40 -20 35 l25
-6 -22 22 c-13 12 -23 23 -23 25 0 2 66 -40 148 -94 320 -213 586 -322 922
-380 541 -92 1089 2 1545 265 422 244 740 576 975 1019 56 106 65 117 73 98 8
-18 -2 -46 -58 -155z m-260 101 c-34 -65 -112 -194 -137 -228 -10 -14 -47 -63
-81 -109 -120 -164 -340 -366 -537 -494 -204 -132 -477 -245 -688 -283 -162
-29 -283 -45 -319 -42 -25 2 3 9 85 21 517 75 992 314 1323 666 83 88 159 194
328 461 52 80 66 85 26 8z m443 -3 c30 -10 52 -22 52 -31 0 -8 -2 -14 -5 -14
-10 0 -116 29 -125 35 -13 8 -1 35 13 30 7 -2 36 -11 65 -20z m-4521 -25 c11
-17 9 -20 -25 -30 -52 -14 -59 -13 -65 10 -3 11 -1 20 4 20 5 0 9 -4 9 -10 0
-19 32 -10 37 10 7 25 25 26 40 0z m3793 -19 c0 -15 -149 -161 -165 -161 -33
0 -20 22 53 94 69 67 112 93 112 67z m693 -34 c29 -9 37 -17 37 -36 0 -18 -4
-22 -17 -16 -10 4 -37 12 -60 18 -29 7 -43 16 -43 27 0 23 11 32 29 25 9 -4
33 -12 54 -18z m-4437 -34 c21 -28 16 -35 -20 -31 -19 2 -32 0 -30 -4 3 -4 1
-8 -4 -8 -6 0 -12 7 -16 15 -3 8 -13 15 -23 16 -12 0 -8 5 12 14 41 19 65 18
81 -2z m4397 -55 c22 -11 19 -51 -4 -56 -21 -4 -83 40 -87 62 -4 16 1 18 34
11 21 -4 47 -11 57 -17z m-4339 -44 c9 -24 4 -25 -23 -3 -22 18 -22 19 -3 19
11 0 23 -7 26 -16z m-48 -40 c-3 -8 -10 -14 -16 -14 -11 0 -14 43 -3 54 10 10
26 -23 19 -40z m4332 -6 c24 -12 31 -58 8 -58 -17 0 -79 21 -89 30 -5 4 -4 18
3 29 12 23 29 22 78 -1z m-4233 -58 c8 -24 -10 -50 -34 -49 -11 0 -9 3 7 9 24
10 29 29 10 48 -9 9 -9 12 -1 12 7 0 15 -9 18 -20z m-35 -18 c0 -12 -39 -32
-45 -23 -7 12 24 43 36 36 5 -4 9 -9 9 -13z m-80 -12 c0 -5 -4 -10 -10 -10 -5
0 -10 5 -10 10 0 6 5 10 10 10 6 0 10 -4 10 -10z m4285 -7 c34 -16 43 -35 27
-61 -7 -10 -18 -9 -55 5 -46 17 -53 26 -41 57 8 20 25 20 69 -1z m-4145 -68
c0 -8 -6 -15 -12 -15 -9 0 -9 -3 1 -9 11 -7 18 -4 25 11 11 21 28 27 33 11 5
-15 -21 -42 -47 -48 -20 -5 -26 -2 -26 12 -1 10 -4 26 -9 36 -5 13 -2 17 14
17 12 0 21 -6 21 -15z m4074 -24 c31 -21 46 -71 21 -71 -8 0 -17 5 -20 10 -3
6 -11 10 -16 10 -6 0 -7 -5 -3 -11 5 -9 -25 6 -55 28 -6 4 28 53 37 53 4 0 20
-9 36 -19z m-844 6 c0 -2 -37 -33 -82 -69 -153 -120 -336 -224 -483 -272 -107
-35 -225 -64 -225 -55 0 3 42 21 93 38 238 82 513 224 650 338 25 20 47 30 47
20z m-3298 -92 c48 -71 18 -44 -38 35 -21 30 -30 48 -20 40 10 -8 36 -41 58
-75z m132 0 c-4 -16 -2 -25 6 -25 6 0 8 -5 4 -12 -5 -8 -13 -5 -24 10 -10 12
-21 18 -26 14 -5 -4 0 3 10 16 25 29 38 28 30 -3z m3921 -7 c14 -6 24 -17 21
-24 -3 -8 -1 -16 4 -19 15 -9 12 -25 -4 -31 -8 -3 -30 5 -48 18 -18 12 -35 24
-37 25 -4 3 29 43 35 43 2 0 15 -5 29 -12z m-4354 -60 c6 -11 6 -18 0 -18 -9
0 -51 65 -51 78 0 8 35 -34 51 -60z m528 -17 c9 -16 7 -19 -12 -18 -12 0 -31
-3 -42 -7 -15 -6 -13 -2 8 18 34 31 34 31 46 7z m60 -25 c-3 -3 -11 5 -18 17
-13 21 -12 21 5 5 10 -10 16 -20 13 -22z m3714 0 c28 -22 28 -23 9 -46 l-19
-23 -34 24 c-19 13 -36 25 -38 26 -4 3 41 42 49 42 3 0 18 -10 33 -23z m-4876
-58 c-3 -8 -6 -5 -6 6 -1 11 2 17 5 13 3 -3 4 -12 1 -19z m1023 -13 c19 -19
29 -35 23 -35 -6 0 -23 16 -37 35 -15 19 -25 35 -23 35 1 0 18 -16 37 -35z
m183 11 c6 -15 -3 -26 -41 -45 -18 -10 -26 -10 -38 0 -13 10 -12 15 7 36 25
26 64 31 72 9z m3597 -31 c22 -23 23 -27 8 -42 -15 -14 -19 -14 -52 6 -39 25
-42 31 -24 49 19 19 42 14 68 -13z m-3706 -60 c9 -14 15 -25 13 -25 -2 0 -14
11 -27 25 -13 14 -19 25 -13 25 6 0 18 -11 27 -25z m191 15 c16 -27 -56 -70
-82 -49 -11 10 -10 16 8 36 23 24 63 31 74 13z m3439 -29 c18 -20 13 -47 -13
-60 -11 -7 -24 -2 -45 15 -27 24 -28 26 -11 44 23 25 47 25 69 1z m493 -44
c-25 -39 -41 -72 -44 -92 -5 -37 -9 -50 -17 -63 -4 -7 -5 -16 -2 -19 9 -9 46
41 41 55 -3 9 1 11 14 7 11 -3 22 -1 26 5 3 5 10 10 15 10 16 0 1 -41 -27 -75
-51 -61 -287 -289 -358 -346 -92 -74 -205 -152 -205 -142 0 4 -7 0 -14 -10 -9
-12 -16 -14 -21 -8 -3 6 -2 11 4 11 19 0 29 54 13 78 -13 20 -13 22 4 22 16 0
16 2 4 9 -8 6 -17 8 -21 5 -4 -2 -9 2 -12 9 -3 7 48 57 121 117 69 58 189 166
266 242 78 75 153 147 167 160 14 13 24 28 22 34 -2 5 6 10 18 11 19 2 19 0 6
-20z m-3859 -10 c12 -14 -7 -47 -29 -47 -8 0 -6 5 6 13 12 10 14 16 7 21 -17
10 -32 -2 -32 -25 0 -25 -23 -20 -28 5 -8 37 51 63 76 33z m3270 -23 c28 -20
26 -58 -3 -62 -12 -2 -31 8 -44 22 -20 21 -22 28 -11 41 16 19 30 19 58 -1z
m-3181 -60 c4 -11 -41 -64 -54 -64 -5 0 -14 9 -21 21 -11 18 -11 24 4 40 19
21 65 23 71 3z m3103 -8 c25 -28 22 -51 -9 -59 -16 -4 -25 2 -37 25 -28 55 3
78 46 34z m-3032 -48 c18 -18 14 -36 -12 -53 -47 -31 -80 17 -34 49 27 19 31
19 46 4z m2960 -20 c15 -25 15 -28 -3 -47 -24 -28 -32 -26 -50 9 -20 38 -19
57 3 63 26 7 32 4 50 -25z m-4308 -10 c0 -18 -2 -20 -9 -8 -6 8 -7 18 -5 22 9
14 14 9 14 -14z m1434 -42 c9 -14 6 -21 -13 -37 -47 -39 -82 -7 -40 37 25 27
37 27 53 0z m2794 -15 c17 -21 15 -28 -14 -48 -25 -16 -27 -16 -45 8 -23 30
-24 48 -2 65 19 13 34 7 61 -25z m-2708 -41 c0 -20 -33 -60 -49 -60 -16 0 -23
38 -11 60 15 27 60 28 60 0z m2613 -19 c15 -25 17 -34 7 -46 -21 -25 -58 -18
-74 13 -14 27 -13 30 7 50 27 27 37 24 60 -17z m-2543 -31 c0 -21 -35 -54 -49
-45 -17 10 -13 53 6 63 22 13 43 4 43 -18z m2440 -20 c23 -32 21 -56 -5 -66
-32 -13 -68 53 -44 82 17 20 25 18 49 -16z m-2375 -10 c9 -15 -23 -62 -38 -57
-7 2 -13 11 -15 21 -7 33 37 62 53 36z m2286 -41 c17 -24 20 -36 12 -48 -16
-25 -49 -25 -67 1 -21 29 -20 48 2 64 24 19 28 18 53 -17z m-2203 -29 c-10
-31 -29 -43 -53 -34 -19 8 -19 34 0 61 13 19 19 21 39 11 21 -9 23 -14 14 -38z
m2102 -9 c12 -24 13 -71 1 -71 -5 0 -16 -2 -24 -6 -10 -3 -17 6 -24 34 -8 32
-7 41 6 50 23 16 29 14 41 -7z m-2010 2 c0 -3 -7 -20 -16 -39 -28 -58 -62 -29
-40 32 4 11 56 17 56 7z m74 -29 c12 -4 14 -13 9 -32 -9 -37 -26 -52 -52 -45
-18 4 -21 12 -19 37 2 23 7 30 21 28 9 -2 17 2 17 8 0 12 3 12 24 4z m1852
-18 c10 -43 1 -61 -31 -61 -23 0 -32 6 -40 28 -8 24 -6 31 10 43 29 21 54 17
61 -10z m-1752 -25 c10 -16 -18 -71 -37 -71 -24 0 -32 25 -19 56 11 23 45 33
56 15z m1642 -26 c18 -43 14 -51 -26 -57 -34 -5 -45 4 -56 46 -6 27 -5 29 20
24 18 -4 26 -1 26 8 0 27 21 14 36 -21z m-1556 -14 c0 -40 -13 -62 -34 -59
-27 4 -32 30 -11 62 18 27 45 25 45 -3z m1449 -28 c12 -43 8 -53 -24 -53 -20
0 -25 7 -31 36 -5 26 -3 39 7 45 26 16 38 9 48 -28z m-1359 -21 c0 -21 -3 -41
-6 -45 -7 -7 -54 13 -54 24 0 26 22 59 40 59 17 0 20 -7 20 -38z m1265 -3 c8
-45 8 -44 -22 -53 -19 -6 -23 -2 -29 28 -8 45 0 66 25 66 15 0 21 -9 26 -41z
m-1171 6 c6 -16 -12 -75 -23 -75 -4 0 -15 6 -24 13 -15 10 -16 17 -6 45 12 34
42 44 53 17z m1077 -12 c16 -42 8 -68 -21 -68 -22 0 -25 5 -28 39 -2 24 2 42
10 47 21 14 28 11 39 -18z m-995 9 c6 -4 9 -23 6 -45 -4 -34 -7 -38 -31 -35
-32 4 -38 28 -15 62 17 28 23 30 40 18z m907 -35 c12 -37 3 -57 -28 -57 -22 0
-25 4 -25 38 0 21 3 42 7 46 14 14 37 0 46 -27z m-805 -25 c3 -42 2 -43 -25
-40 -30 3 -39 23 -29 64 5 19 12 25 29 22 18 -2 23 -10 25 -46z m86 32 c11 -4
16 -19 16 -46 0 -37 -2 -39 -27 -36 -31 3 -39 22 -24 61 11 29 12 30 35 21z
m630 -10 c17 -44 1 -74 -39 -74 -13 0 -29 66 -19 82 9 14 52 9 58 -8z m-516
-41 c3 -42 2 -43 -27 -43 -29 0 -31 2 -31 38 0 45 6 54 35 50 16 -2 21 -12 23
-45z m416 31 c12 -32 6 -63 -14 -69 -11 -3 -24 -4 -29 -1 -13 8 -24 63 -16 76
10 16 52 12 59 -6z m-314 -40 c0 -44 -1 -45 -27 -42 -25 3 -28 7 -31 46 -3 41
-2 42 27 42 30 0 31 -1 31 -46z m110 1 c0 -43 -1 -45 -30 -45 -29 0 -30 2 -30
45 0 43 1 45 30 45 29 0 30 -2 30 -45z m105 0 c0 -38 -2 -40 -30 -40 -28 0
-30 3 -33 43 l-3 43 33 -3 c31 -3 33 -5 33 -43z m-1295 -164 c5 -21 13 -59 16
-86 7 -44 10 -48 51 -66 25 -10 57 -19 72 -19 15 0 31 -4 37 -8 5 -5 29 -14
54 -21 25 -7 81 -26 125 -43 101 -38 388 -112 520 -133 115 -18 313 -41 424
-50 209 -15 294 -31 356 -64 22 -11 45 -21 52 -21 7 0 13 -4 13 -9 0 -5 10
-11 22 -14 12 -4 20 -8 17 -11 -3 -3 -83 -12 -179 -21 -318 -27 -756 -17
-1026 25 -163 25 -508 100 -521 113 -2 3 -7 40 -10 83 -6 75 -22 112 -42 100
-16 -10 -21 24 -21 155 0 106 3 129 15 129 8 0 19 -16 25 -39z m-1856 -833 c3
-13 1 -27 -5 -33 -7 -7 -8 -4 -4 8 4 10 2 17 -4 17 -6 0 -11 7 -11 15 0 23 17
18 24 -7z m-400 -464 c22 -9 21 -46 -1 -42 -20 3 -33 17 -33 36 0 13 10 15 34
6z m-71 -104 c3 -11 1 -22 -3 -25 -15 -9 -40 7 -40 26 0 26 36 25 43 -1z m157
-10 c0 -5 -5 -10 -11 -10 -5 0 -7 5 -4 10 3 6 8 10 11 10 2 0 4 -4 4 -10z
m-240 -80 c0 -15 -6 -19 -25 -18 -40 4 -29 35 13 37 6 1 12 -8 12 -19z m-80 0
c0 -5 -7 -10 -16 -10 -8 0 -12 5 -9 10 3 6 10 10 16 10 5 0 9 -4 9 -10z m40
-77 c0 -8 -9 -17 -19 -20 -11 -3 -21 -13 -24 -24 -3 -11 -14 -19 -26 -19 -21
0 -27 -16 -22 -67 2 -20 -3 -23 -39 -23 l-40 0 0 45 0 45 40 0 c39 0 40 1 40
35 0 28 4 35 20 35 11 0 20 4 20 9 0 4 11 6 25 3 14 -2 25 -11 25 -19z m50 -3
c0 -5 -2 -10 -4 -10 -3 0 -8 5 -11 10 -3 6 -1 10 4 10 6 0 11 -4 11 -10z m-30
-126 c0 -14 -3 -14 -15 -4 -8 7 -15 14 -15 16 0 2 7 4 15 4 8 0 15 -7 15 -16z
m-250 -24 c0 -5 14 -10 30 -10 20 0 30 -5 30 -15 0 -9 -9 -15 -21 -15 -12 0
-23 -8 -26 -19 -3 -11 -13 -21 -23 -24 -17 -4 -19 1 -17 44 1 31 6 49 15 49 6
0 12 -4 12 -10z m-70 -190 c0 -11 -4 -20 -10 -20 -5 0 -10 9 -10 20 0 11 5 20
10 20 6 0 10 -9 10 -20z m107 -2 c-3 -8 -6 -5 -6 6 -1 11 2 17 5 13 3 -3 4
-12 1 -19z m-192 -104 c0 -33 -4 -40 -22 -42 -21 -3 -23 1 -23 36 0 38 12 54
35 48 6 -2 10 -20 10 -42z m-315 -513 c0 -6 -4 -13 -10 -16 -5 -3 -10 1 -10 9
0 9 5 16 10 16 6 0 10 -4 10 -9z m-330 -306 c0 -8 -4 -15 -10 -15 -5 0 -10 7
-10 15 0 8 5 15 10 15 6 0 10 -7 10 -15z"/>
<path d="M5175 6205 c-7 -165 -4 -470 5 -478 10 -9 367 23 426 38 72 19 171
80 207 129 65 84 82 212 39 293 -61 117 -177 155 -514 171 l-156 7 -7 -160z
m163 -92 l-3 -93 36 0 36 0 -4 136 c-3 126 -2 135 14 132 16 -3 18 -18 21
-136 l3 -132 34 0 35 0 0 135 c0 108 3 135 14 135 16 0 32 -166 21 -230 l-7
-40 40 0 40 0 4 114 c3 109 9 138 26 122 4 -4 9 -97 10 -206 l4 -199 -37 -7
c-37 -7 -293 3 -307 12 -4 3 -5 31 -1 64 3 32 2 67 -2 77 -12 29 -5 264 8 288
11 18 12 14 15 -30 2 -27 2 -91 0 -142z"/>
<path d="M5350 5935 c0 -54 0 -55 30 -55 29 0 30 1 30 49 0 35 -4 51 -16 55
-38 14 -44 7 -44 -49z"/>
<path d="M5447 5983 c-4 -3 -7 -28 -7 -55 l0 -48 35 0 35 0 0 55 c0 54 -1 55
-28 55 -16 0 -32 -3 -35 -7z"/>
<path d="M5550 5936 c0 -56 0 -56 31 -56 l30 0 -3 53 c-3 48 -5 52 -30 55 -28
3 -28 2 -28 -52z"/>
<path d="M6476 5452 c-3 -5 1 -9 9 -9 8 0 12 4 9 9 -3 4 -7 8 -9 8 -2 0 -6 -4
-9 -8z"/>
<path d="M6503 5416 c-10 -11 -9 -15 2 -20 25 -9 7 -30 -48 -55 -28 -13 -59
-30 -67 -38 -33 -30 -64 -53 -72 -53 -5 0 -19 -9 -31 -21 -12 -11 -30 -18 -39
-15 -10 2 -18 0 -18 -5 0 -5 -10 -9 -22 -9 -31 0 -74 -24 -70 -39 1 -7 -2 -10
-7 -6 -19 11 -30 -32 -25 -100 15 -235 -100 -384 -361 -470 -102 -33 -269 -55
-421 -55 -104 0 -126 3 -131 16 -3 8 -2 19 3 24 5 5 81 14 168 20 189 13 368
48 451 89 73 36 171 114 203 161 57 84 65 207 22 308 -42 98 -174 188 -310
212 -36 6 -174 14 -308 18 l-242 7 -1 -210 c-1 -115 -4 -223 -8 -240 l-6 -30
-16 34 -16 33 -22 -23 c-11 -12 -31 -24 -43 -25 -127 -12 -221 -14 -232 -5 -8
7 -20 6 -40 -4 -35 -19 -37 -19 -30 0 4 10 0 15 -15 15 -13 0 -21 -6 -21 -16
0 -10 -6 -14 -15 -10 -13 5 -15 -18 -15 -169 l0 -174 -31 -16 c-18 -10 -85
-21 -165 -29 -73 -7 -135 -14 -138 -17 -4 -4 -86 -292 -86 -303 0 -3 154 -7
343 -8 l342 -3 3 -233 2 -233 122 3 123 3 0 235 0 235 133 3 132 3 1 -38 c1
-21 2 -128 3 -238 l1 -200 118 2 c66 1 121 4 123 6 3 2 8 111 11 241 5 203 8
236 22 240 9 3 51 10 94 15 76 11 201 40 340 80 157 46 313 146 396 256 177
235 173 638 -9 815 -56 54 -59 56 -77 36z m-850 -364 c1 -64 2 -152 1 -194 -1
-55 2 -78 11 -78 7 0 44 16 83 35 107 54 168 136 182 245 7 54 7 53 9 -27 1
-74 -2 -87 -31 -144 -24 -45 -46 -71 -81 -95 -44 -30 -161 -74 -198 -74 -12 0
-13 34 -11 200 2 110 2 200 0 200 -2 0 -68 3 -148 7 -80 3 -147 7 -149 9 -2 2
-1 10 3 19 5 13 29 15 166 14 l160 0 3 -117z m-79 -72 c17 -3 29 -8 28 -12 -1
-5 -2 -12 -2 -17 0 -5 -10 -11 -22 -13 -22 -3 -23 -8 -26 -106 -3 -100 -2
-103 18 -97 11 3 20 2 20 -4 0 -14 -30 -29 -49 -24 -9 2 -63 -3 -121 -11 -63
-10 -108 -12 -113 -7 -18 18 5 31 59 31 l54 0 2 63 2 62 3 -57 4 -58 44 0 45
0 0 105 0 105 -45 0 c-36 0 -45 -4 -46 -17 0 -14 -2 -13 -9 5 -8 18 -17 22
-50 22 -22 0 -40 -5 -40 -11 0 -5 -4 -7 -10 -4 -5 3 -10 15 -10 26 0 18 8 19
110 19 l110 0 2 53 1 52 6 -50 c5 -46 8 -50 35 -55z m-17 43 c-3 -10 -5 -4 -5
12 0 17 2 24 5 18 2 -7 2 -21 0 -30z m-110 -225 c-3 -8 -6 -5 -6 6 -1 11 2 17
5 13 3 -3 4 -12 1 -19z"/>
<path d="M5893 7165 c0 -22 2 -30 4 -17 2 12 2 30 0 40 -3 9 -5 -1 -4 -23z"/>
<path d="M5920 7180 c0 -5 5 -10 11 -10 5 0 7 5 4 10 -3 6 -8 10 -11 10 -2 0
-4 -4 -4 -10z"/>
<path d="M8192 5960 c0 -14 2 -19 5 -12 2 6 2 18 0 25 -3 6 -5 1 -5 -13z"/>
<path d="M9206 10617 c3 -10 9 -15 12 -12 3 3 0 11 -7 18 -10 9 -11 8 -5 -6z"/>
<path d="M8712 9645 c0 -16 2 -22 5 -12 2 9 2 23 0 30 -3 6 -5 -1 -5 -18z"/>
<path d="M8530 9216 c0 -8 5 -18 10 -21 6 -3 10 3 10 14 0 12 -4 21 -10 21 -5
0 -10 -6 -10 -14z"/>
<path d="M8501 9174 c0 -11 3 -14 6 -6 3 7 2 16 -1 19 -3 4 -6 -2 -5 -13z"/>
<path d="M7900 6386 c0 -9 5 -16 10 -16 6 0 10 4 10 9 0 6 -4 13 -10 16 -5 3
-10 -1 -10 -9z"/>
<path d="M7920 6331 c0 -5 5 -13 10 -16 6 -3 10 -2 10 4 0 5 -4 13 -10 16 -5
3 -10 2 -10 -4z"/>
<path d="M8115 6260 c3 -5 8 -10 11 -10 2 0 4 5 4 10 0 6 -5 10 -11 10 -5 0
-7 -4 -4 -10z"/>
<path d="M2095 5998 c-8 -89 -13 -367 -7 -408 3 -23 17 -12 145 111 l142 137
-25 27 c-31 33 -236 215 -243 215 -3 0 -8 -37 -12 -82z"/>
<path d="M8001 6037 c-13 -21 -12 -21 5 -5 10 10 16 20 13 22 -3 3 -11 -5 -18
-17z"/>
<path d="M8020 5866 c0 -8 4 -17 9 -20 5 -4 7 3 4 14 -6 23 -13 26 -13 6z"/>
<path d="M2780 5153 c0 -4 5 -15 10 -23 8 -13 10 -13 10 2 0 9 -4 20 -10 23
-5 3 -10 3 -10 -2z"/>
<path d="M2231 4694 c0 -11 3 -14 6 -6 3 7 2 16 -1 19 -3 4 -6 -2 -5 -13z"/>
<path d="M2850 2980 c0 -5 7 -10 15 -10 8 0 15 5 15 10 0 6 -7 10 -15 10 -8 0
-15 -4 -15 -10z"/>
<path d="M2867 2940 c3 -11 7 -20 9 -20 2 0 4 9 4 20 0 11 -4 20 -9 20 -5 0
-7 -9 -4 -20z"/>
<path d="M2811 2594 c0 -11 3 -14 6 -6 3 7 2 16 -1 19 -3 4 -6 -2 -5 -13z"/>
<path d="M1460 1230 c0 -5 5 -10 11 -10 5 0 7 5 4 10 -3 6 -8 10 -11 10 -2 0
-4 -4 -4 -10z"/>
<path d="M1201 1024 c0 -11 3 -14 6 -6 3 7 2 16 -1 19 -3 4 -6 -2 -5 -13z"/>
<path d="M970 656 c0 -22 -5 -25 -46 -28 -41 -3 -44 -5 -32 -20 7 -10 32 -20
56 -23 39 -5 43 -3 52 21 17 43 13 74 -10 74 -15 0 -20 -7 -20 -24z"/>
<path d="M840 570 c0 -14 -7 -20 -24 -20 -44 0 -56 -10 -56 -46 0 -34 -11 -41
-57 -35 -13 2 -39 -38 -26 -40 4 -1 15 -2 23 -3 19 -1 26 -46 8 -47 -7 -1 -28
0 -45 1 -27 1 -33 -2 -33 -19 0 -11 -8 -22 -17 -24 -10 -3 8 -5 39 -6 31 0 69
4 83 9 22 8 26 15 21 35 -5 18 -1 27 13 35 33 17 61 12 61 -11 0 -11 4 -18 8
-15 5 3 7 30 4 61 -3 35 -1 55 6 55 6 0 13 12 15 28 l4 27 2 -26 c1 -21 6 -26
26 -26 19 0 25 5 25 22 0 13 -7 25 -15 29 -8 3 -12 12 -9 21 5 11 -1 15 -25
15 -24 0 -31 -4 -31 -20z"/>
<path d="M502 360 c0 -14 2 -19 5 -12 2 6 2 18 0 25 -3 6 -5 1 -5 -13z"/>
<path d="M546 355 c2 -11 4 -32 4 -48 0 -25 2 -26 20 -15 25 16 26 45 1 53
-11 3 -22 11 -24 18 -2 7 -3 3 -1 -8z"/>
<path d="M442 280 c0 -14 2 -19 5 -12 2 6 2 18 0 25 -3 6 -5 1 -5 -13z"/>
<path d="M670 26 c0 -14 5 -26 10 -26 6 0 10 9 10 19 0 11 -4 23 -10 26 -6 4
-10 -5 -10 -19z"/>
</g>
</svg>
